<?xml version="1.0" encoding="UTF-8" standalone="no"?>
<!DOCTYPE svg PUBLIC "-//W3C//DTD SVG 1.1//EN" "http://www.w3.org/Graphics/SVG/1.1/DTD/svg11.dtd">
<svg width="100%" height="100%" viewBox="0 0 2157 2159" version="1.1" xmlns="http://www.w3.org/2000/svg" xmlns:xlink="http://www.w3.org/1999/xlink" xml:space="preserve" xmlns:serif="http://www.serif.com/" style="fill-rule:evenodd;clip-rule:evenodd;stroke-linejoin:round;stroke-miterlimit:2;">
    <g transform="matrix(1,0,0,1,-120.811,-725.855)">
        <g transform="matrix(2.34352,0,0,2.34352,-1033.7,947.899)">
            <g id="large-hand" serif:id="large hand">
                <g transform="matrix(1,0,0,1,40.0203,-72.2318)">
                    <path d="M824.412,422.63C824.899,422.44 825.693,422.106 826.14,421.799C827.235,421.049 828.27,420.132 828.681,419.145C832.63,409.669 832.364,400.826 832.364,391.709C832.364,389.382 832.912,386.484 833.565,383.511C833.852,382.207 834.195,379.859 834.275,379.301C834.075,378.608 833.841,377.51 833.811,376.029C833.755,373.191 834.394,362.078 834.488,357.267C834.205,355.858 834.222,354.366 834.593,352.88C836.564,344.996 843.138,345.042 844.422,345.044C846.516,345.048 852.869,345.613 854.288,353.347C854.547,354.754 853.948,371.693 853.827,375.018C854.405,377.68 854.394,380.768 853.861,383.985C853.413,386.695 852.364,389.57 852.364,391.709C852.364,403.406 852.208,414.68 847.143,426.837C844.63,432.867 837.73,439.5 830.306,441.802C823.866,443.799 817.256,442.962 811.904,438.278C802.308,429.883 798.57,420.789 796.833,410.945C795.46,403.167 795.606,394.828 794.126,385.946C791.625,370.94 792.177,354.472 792.177,339.191C792.177,334.856 793.671,329.928 792.594,325.621C791.686,321.987 791.629,317.953 791.851,313.834C792.031,310.487 792.724,307.035 791.745,304.098C789.718,298.018 789.502,289.698 788.762,282.265C788.547,280.108 787.793,277.102 787.422,275.707C787.067,275.752 786.652,275.813 786.269,275.894C785.857,276.15 784.676,276.891 784.256,277.258C782.834,278.503 782.197,280.494 781.522,282.464C780.287,286.071 779.463,289.905 778.47,293.084C775.7,301.947 775.489,311.187 775.504,320.425C775.522,331.214 775.874,342.012 774.232,352.413C771.786,367.907 775.068,384.651 772.747,400.127C767.504,435.077 771.818,469.771 777.423,505.271C779.171,516.342 779.222,527.793 780.022,539.068C780.714,548.825 781.949,558.458 786.168,567.422C788.935,573.301 796.822,580.23 801.49,583.964C820.867,599.465 853.639,603.362 879.077,597.911C886.993,596.215 893.439,591.735 901.047,589.833C917.212,585.791 932.981,597.012 936.798,611.007C939.368,620.429 937.043,629.184 931.783,636.621C925.214,645.91 913.672,652.951 903.784,655.917C902.603,656.272 901.618,657.125 900.505,657.721C898.387,658.854 896.158,659.733 893.724,660.117C870.536,663.778 845.047,659.952 822.09,656.42C818.545,655.874 813.78,654.788 809.133,654.159C810.628,655.273 812.111,656.168 813.257,656.643C851.616,672.548 897.852,675.63 938.942,668.782C964.364,664.545 990.981,657.848 1006.01,635.886C1009.39,630.948 1010.94,625.106 1012.22,619.157C1013.85,611.645 1014.98,603.933 1017.15,596.869C1022.14,580.651 1026.34,563.176 1034.5,548.371C1036.29,545.125 1037.22,541.332 1038.58,537.767C1039.95,534.15 1041.65,530.705 1044.02,527.679C1049.25,521.024 1055.91,516.228 1062.68,511.533C1067.85,507.949 1073.13,504.463 1077.21,499.362C1080.66,495.055 1082.6,485.146 1083.51,479.696C1087.17,457.725 1094.76,432.325 1089.19,410.051C1088.12,405.779 1087.94,400.963 1087.74,396.107C1087.58,392.027 1087.86,387.767 1085.33,384.6C1085.27,384.53 1085.2,384.449 1085.12,384.372C1084.88,384.458 1084.57,384.576 1084.37,384.681C1083.2,385.293 1082.08,386.191 1081.03,387.18C1078.3,389.753 1076.02,392.982 1075.07,395.279C1068.71,410.53 1065.1,426.513 1059.29,441.047C1052.69,457.541 1043.44,472.266 1026.26,483.004C1011.7,492.106 995.727,494.858 979.338,496.193C965.148,497.349 950.638,497.377 936.795,501.152C934.238,501.849 931.537,501.998 928.794,501.895C927.119,501.832 925.413,501.438 923.844,501.8C914.9,503.864 904.939,504.661 899.238,512.643C898.541,513.618 898.217,516.722 898.171,517.197C898.908,518.804 900.355,521.198 900.979,523.153C902.742,524.303 904.402,525.702 906.044,527.126C906.789,527.771 907.527,528.422 908.307,528.991C908.596,529.201 908.786,529.632 909.201,529.568C910.333,529.394 912.659,529.039 913.603,528.896C915.364,527.404 918.424,524.914 919.679,524.501C922.37,523.616 924.747,523.891 926.7,524.628C929.175,525.561 931.48,527.298 932.771,530.74C934.709,535.908 932.087,541.677 926.919,543.615C926.891,543.625 926.862,543.636 926.834,543.646C925.789,544.629 924.503,545.813 924.137,546.041C920.916,548.054 915.96,548.764 912.242,549.336C906.873,550.162 902.495,548.878 898.582,546.522C895.532,544.686 892.989,541.738 889.977,539.855C888.853,539.153 884.548,535.443 883.114,533.106C882.048,531.367 881.57,529.68 881.438,528.162C880.893,527.19 879.98,525.534 879.663,524.795C876.753,518.004 879.066,506.474 882.963,501.018C891.638,488.874 905.739,485.452 919.347,482.312C921.814,481.743 924.418,481.667 927.054,481.786C928.573,481.855 930.118,482.243 931.532,481.857C946.567,477.756 962.302,477.515 977.714,476.259C990.927,475.183 1003.92,473.383 1015.66,466.044C1028.85,457.803 1035.66,446.278 1040.72,433.62C1046.57,419.001 1050.21,402.928 1056.6,387.587C1059.31,381.083 1067.45,370.519 1076.16,366.436C1080.3,364.496 1084.58,363.807 1088.69,364.525C1092.95,365.267 1097.22,367.442 1100.95,372.106C1104.7,376.802 1106.48,382.356 1107.21,388.28C1107.92,393.971 1107.31,400.088 1108.59,405.2C1114.81,430.054 1107.32,458.469 1103.24,482.984C1101.89,491.084 1097.95,505.454 1092.83,511.856C1087.51,518.511 1080.82,523.296 1074.07,527.971C1068.93,531.535 1063.72,534.985 1059.75,540.036C1057.8,542.512 1056.97,545.633 1055.93,548.638C1054.81,551.895 1053.63,555.11 1052.02,558.033C1044.5,571.659 1040.86,587.823 1036.27,602.751C1034.26,609.286 1033.27,616.434 1031.77,623.383C1029.93,631.895 1027.35,640.114 1022.51,647.179C1004.35,673.728 972.961,683.388 942.23,688.509C897.554,695.955 847.303,692.41 805.597,675.118C800.26,672.905 791.027,666.181 787.085,659.687C784.503,655.432 783.756,651.123 784.596,647.262C784.309,645.016 784.241,642.472 785.025,640.942C785.967,639.102 787.758,636.27 793.132,634.856C801.718,632.597 816.3,635.294 825.131,636.652C846.12,639.881 869.406,643.709 890.605,640.362C891.743,640.182 892.542,639.238 893.52,638.704C894.977,637.909 896.473,637.23 898.038,636.761C903.221,635.206 909.185,631.961 913.415,627.531C916.403,624.4 918.692,620.628 917.503,616.27C916.256,611.699 911.177,607.916 905.897,609.236C898.071,611.192 891.411,615.722 883.267,617.468C852.305,624.102 812.582,618.45 788.996,599.581C782.46,594.353 771.946,584.17 768.072,575.938C758.164,554.884 761.221,530.891 757.668,508.39C751.739,470.839 747.422,434.13 752.968,397.16C755.297,381.635 752.022,364.837 754.477,349.294C755.957,339.919 755.52,330.182 755.504,320.458C755.486,309.183 756,297.935 759.38,287.119C760.677,282.969 761.763,277.811 763.614,273.268C765.39,268.912 767.829,265.057 771.086,262.207C773.329,260.244 777.919,257.427 780.595,256.697C787.752,254.745 792.982,255.636 796.869,257.589C801.246,259.789 804.397,263.575 806.311,268.742C807.732,272.579 808.443,277.399 808.862,282.479C809.301,287.797 809.297,293.51 810.719,297.773C811.986,301.576 812.254,305.799 812.083,310.129C811.939,313.78 811.191,317.546 811.997,320.77C813.458,326.615 812.177,333.309 812.177,339.191C812.177,353.395 811.529,368.709 813.854,382.658C815.065,389.926 815.228,396.838 815.956,403.386C816.728,410.332 818.167,416.825 824.412,422.63ZM917.734,542.485C916.105,541.365 914.791,539.753 914.044,537.763C914.899,540.043 916.197,541.531 917.734,542.485ZM851.29,362.451C852.303,361.551 853.403,360.102 853.996,357.731C853.531,359.592 852.57,361.201 851.29,362.451Z"/>
                </g>
                <g transform="matrix(1,0,0,1,40.0203,-72.2318)">
                    <path d="M822.81,440.641C823.033,440.581 823.24,440.52 823.378,440.468C823.194,440.537 823.005,440.594 822.81,440.641ZM822.322,440.736C822.488,440.711 822.651,440.68 822.81,440.641C822.282,440.785 821.664,440.924 821.664,440.924C821.664,440.924 821.925,440.852 822.322,440.736ZM820.778,419.874C822.525,419.106 824.233,418.242 825.771,416.822C828.456,414.344 829.243,410.219 829.836,406.084C830.703,400.05 830.551,393.716 830.551,388.909C830.551,372.466 831.3,356.221 831.3,339.74C831.3,328.615 828.558,316.018 830.746,305.079C832.34,297.108 830.099,288.624 831.195,280.592C832.171,273.432 833.116,257.436 832.258,251.146C831.514,245.687 833.693,235.683 835.231,230.303C838.655,218.32 839.15,205.803 847.596,195.245C849.314,193.098 850.55,190.207 852.346,188.003C856.17,183.312 861.191,180.057 869.691,181.365C882.026,183.263 887.776,190.837 890.176,201.047C892.412,210.557 890.419,223.389 891.798,232.121C895.353,254.634 888.978,279.209 892.95,301.717C893.473,304.682 893.369,307.884 893.044,311.121C892.816,313.388 892.182,315.68 892.685,317.695C893.786,322.096 894.749,336.695 894.424,347.095C894.255,352.503 893.609,356.947 892.847,359.104C892.193,360.957 892.977,363.246 893.17,365.499C893.481,369.128 893.482,372.703 892.685,375.89C892.38,377.112 892.941,378.382 893.122,379.657C893.499,382.318 893.678,384.958 893.317,387.487C892.51,393.134 892.884,399.531 894.825,404.722C895.787,407.293 897.016,409.633 899.147,410.774C900.831,411.675 902.91,411.528 905.448,410.687C905.944,409.33 907.163,405.979 907.617,404.618C911.03,394.378 910.334,381.729 910.334,370.825C910.334,338.232 910.317,304.177 907.074,271.749C905.373,254.741 906.983,237.638 904.638,220.755C903.138,209.959 906.183,199.78 907.145,189.201C907.828,181.678 910.596,171.279 916.428,165.896C919.071,163.455 922.027,159.69 925.661,157.307C929.848,154.562 934.675,153.127 940.379,154.196C947.092,155.455 955.528,162.219 960.785,171.276C965.738,179.812 967.571,189.828 965.087,197.297C965.291,198.486 965.649,200.728 965.675,201.932C965.703,203.245 965.571,204.497 965.289,205.677C965.521,207.138 965.942,210.128 965.779,211.701C964.872,220.475 965.988,229.279 965.113,238.024C963.486,254.293 966.704,270.97 965.031,287.148C963.807,298.983 963.46,313.416 965.071,325.23C966.56,336.148 967.604,351.514 965.907,362.26C964.358,372.071 963.115,394.982 965.457,404.816L969.041,408.757C972.844,407.485 975.356,404.476 977.018,400.938C979.672,395.285 980.381,388.323 979.868,382.175C979.327,375.679 981.528,368.1 981.528,361.252C981.528,346.213 977.52,326.147 978.231,311.938C978.685,302.861 977.883,293.45 978.69,284.295C978.858,282.397 979.281,279.557 979.519,276.745C979.627,275.462 979.602,273.286 979.597,272.952C978.394,269.109 977.785,265.665 977.785,261.732C977.785,242.119 980.335,221.465 983.469,202.137C984.482,195.89 985.922,188.905 989.694,183.624C991.113,181.638 993.507,179.776 996.527,178.675C999.898,177.446 1004.22,177.167 1004.22,177.167C1006.61,177.034 1008.98,177.769 1010.88,179.237C1010.88,179.237 1016.36,183.57 1018.6,186.226C1023.32,191.83 1026.52,199.616 1028.98,206.388C1034.94,222.788 1036.33,241.757 1037.67,259.192C1039.2,279.081 1037.74,299.745 1040.84,319.427C1045.44,348.547 1045.82,383.928 1036.43,412.086C1032.04,425.258 1020.04,438.857 1011.61,447.808C1009.79,449.743 1007.4,451.224 1004.71,452.278C1002.95,452.963 1000.98,453.359 999.476,454.016C986.82,459.553 974.947,458.85 961.785,461.887C959.36,462.446 956.822,462.475 954.261,462.258C953.05,462.155 951.839,461.706 950.713,461.966C937.789,464.948 923.475,465.356 909.804,467.319C898.416,468.955 887.443,471.614 878.837,479.439C876.705,481.376 874.286,483.052 871.84,484.694C869.664,486.154 867.372,487.471 865.789,489.485C859.325,497.713 858.862,508.268 856.438,517.96C854.872,524.225 858.964,533.93 862.247,539.6C875.159,561.902 896.808,571.251 922.308,567.608C923.877,567.384 925.152,566.227 926.491,565.269C928.44,563.874 930.323,562.422 932.173,561.266C935.653,559.091 940.126,556.149 944.017,552.612C946.912,549.98 949.652,547.114 950.558,543.792C951.79,539.275 953.816,535.907 953.074,530.965C952.432,526.685 949.693,522.657 946.301,519.052C940.358,512.736 932.137,507.784 925.355,506.089C922.577,505.394 918.975,504.64 915.439,504.649C913.519,504.653 911.526,504.622 910.175,505.804C905.126,510.222 900.022,514.878 903.236,521.306C903.393,521.62 903.979,522.475 904.303,522.942C907.867,525.581 909.358,530.384 907.634,534.693C905.585,539.817 899.76,542.313 894.636,540.264C893.212,539.694 891.284,538.476 889.54,536.504C887.858,534.601 886.058,531.672 885.347,530.25C877.554,514.664 884.762,501.465 897.005,490.752C901.035,487.226 906.236,485.34 911.858,484.813C918.208,484.218 925.124,485.415 930.206,486.686C940.088,489.156 952.207,496.144 960.866,505.347C967.21,512.088 971.652,519.994 972.853,527.998C974.059,536.039 971.858,541.705 969.853,549.054C966.514,561.298 952.317,572.261 942.773,578.226C937.474,581.538 931.675,586.473 925.137,587.407C891.024,592.281 862.212,579.456 844.938,549.621C839.465,540.168 834.424,523.554 837.036,513.109C840.129,500.735 841.809,487.634 850.063,477.129C854.104,471.986 860.543,469.04 865.383,464.64C877.02,454.061 891.562,449.734 906.961,447.523C920.076,445.639 933.818,445.339 946.216,442.478C948.61,441.926 951.136,441.898 953.703,442.119C954.913,442.223 956.137,442.665 957.287,442.399C969.192,439.652 980.014,440.7 991.46,435.693C993.041,435.001 996.642,433.859 997.543,433.577C1004.3,426.406 1014.02,416.083 1017.46,405.761C1025.89,380.478 1025.22,348.694 1021.09,322.546C1017.9,302.345 1019.3,281.14 1017.73,260.726C1016.52,245.055 1015.54,227.963 1010.18,213.223C1008.61,208.902 1006.87,203.853 1004.05,200.051C1003.67,201.817 1003.49,203.65 1003.21,205.339C1000.25,223.63 997.785,243.171 997.785,261.732C997.785,263.627 998.141,265.272 998.733,267.131C1000.18,271.665 999.037,281.247 998.613,286.053C997.828,294.956 998.647,304.11 998.206,312.937C997.51,326.859 1001.53,346.516 1001.53,361.252C1001.53,367.562 999.3,374.528 999.799,380.514C1001.51,401.037 992.522,425.806 969.697,429.066C966.401,429.537 962.233,428.638 958.253,425.921C952.612,422.07 947.249,414.235 946.241,410.405C943.253,399.05 944.275,371.024 946.152,359.14C947.582,350.083 946.509,337.136 945.254,327.932C943.442,314.642 943.76,298.404 945.137,285.09C946.808,268.935 943.588,252.28 945.212,236.034C946.069,227.47 945.026,218.849 945.826,210.255C945.674,209.455 945.2,206.87 945.166,205.595C945.13,204.271 945.267,203.007 945.568,201.814C945.363,200.613 944.956,198.064 944.954,196.71C944.95,194.569 945.369,192.578 946.19,190.786C946.564,189.97 946.327,188.973 946.128,187.94C945.7,185.729 944.719,183.44 943.486,181.315C942.201,179.099 940.626,177.056 938.942,175.507C938.206,174.83 937.58,174.122 936.877,173.9C936.674,174.025 936.281,174.273 936.067,174.447C935.364,175.018 934.721,175.677 934.104,176.326C932.641,177.866 931.286,179.399 929.993,180.592C929.107,181.41 928.734,182.747 928.333,184.048C927.603,186.415 927.251,188.933 927.062,191.012C926.238,200.075 923.163,208.755 924.447,218.003C926.828,235.14 925.249,252.496 926.975,269.759C930.283,302.839 930.334,337.576 930.334,370.825C930.334,383.784 930.647,398.772 926.59,410.943C925.573,413.994 924.146,419.014 921.795,422.486C919.815,425.41 917.259,427.55 914.316,428.727C904.162,432.789 896.024,431.786 889.711,428.407C883.899,425.297 879.428,419.872 876.604,413.029C873.142,404.64 872.182,394.01 873.518,384.658C873.746,383.061 873.138,381.382 872.935,379.698C872.58,376.761 872.581,373.847 873.283,371.04C873.863,368.717 873.095,365.973 872.905,363.359C872.622,359.45 872.84,355.699 873.988,352.447C874.555,350.84 874.488,346.914 874.494,342.532C874.505,334.704 874.044,325.593 873.283,322.545C872.515,319.474 872.476,316.117 872.781,312.68C873.006,310.141 873.667,307.531 873.254,305.193C869.262,282.569 875.616,257.869 872.043,235.24C870.895,227.969 872.101,217.85 871.262,209.178C870.931,205.762 870.73,202.276 867.439,201.306C866.968,202.032 866.285,203.099 865.875,203.788C865.041,205.191 864.172,206.541 863.213,207.739C859.722,212.104 858.548,217.085 857.495,222.089C856.534,226.654 855.752,231.279 854.461,235.797C853.521,239.086 851.62,245.107 852.075,248.443C853.09,255.887 852.167,274.822 851.011,283.294C849.861,291.728 852.031,300.632 850.357,309.001C848.416,318.706 851.3,329.871 851.3,339.74C851.3,356.221 850.551,372.466 850.551,388.909C850.551,395.762 850.652,405.219 848.795,413.548C847.198,420.714 844.142,427.083 839.336,431.519C835.246,435.294 830.521,436.583 826.034,439.388C825.348,439.816 823.365,440.43 822.322,440.736C819.483,441.157 815.784,439.6 813.107,438.168C812.183,438.216 809.512,438.347 808.363,438.347C802.843,438.347 798.363,433.866 798.363,428.347C798.363,422.827 802.843,418.347 808.363,418.347C811.52,418.347 816.455,418.038 819.502,419.16C819.846,419.287 820.29,419.545 820.778,419.874ZM812.769,437.985C810.896,436.959 809.602,436.046 809.602,436.046C809.602,436.046 811.691,437.596 812.588,437.927C812.638,437.945 812.701,437.965 812.769,437.985ZM816.631,421.65C816.537,421.677 816.446,421.708 816.356,421.741C816.433,421.712 816.526,421.682 816.631,421.65Z"/>
                </g>
                <g transform="matrix(1,0,0,1,40.0203,-72.2318)">
                    <path d="M822.229,649.98C825.712,650.968 829.594,651.487 833.135,652.151C845.23,654.418 858.407,653.416 870.537,656.215C880.575,658.531 891.246,657.665 901.382,657.58C901.245,655.677 901.612,653.807 902.448,651.974C903.128,650.486 904.224,648.944 905.737,647.551C906.753,646.615 909.009,645.014 909.432,644.716C916.394,637.881 926.114,634.113 935.7,632.228C933.543,629.946 931.564,626.899 930.971,625.714C929.582,622.937 929.548,620.188 929.829,618.201C928.924,615.831 926.985,613.478 925.614,611.546C922.839,607.636 918.954,603.885 915.453,601.107C914.188,600.374 909.773,597.793 908.926,596.977C906.061,594.22 905.724,591.261 905.724,589.566C905.724,585.505 907.626,581.456 912.803,579.216C915.04,578.248 918.953,577.657 922.555,577.691C926.1,577.725 929.27,578.313 930.076,578.582C931.59,579.086 933.029,579.729 934.406,580.483C934.709,576.456 936.323,572.34 939.535,568.772C941.277,566.835 945.498,561.41 949.255,558.552C950.433,557.655 951.627,556.947 952.807,556.407C952.904,556.299 953.001,556.191 953.099,556.083C956.349,552.483 959.785,548.986 961.77,544.702C964.475,538.865 963.342,528.693 960.21,523.357C958.955,521.218 953.203,512.802 952.256,508.007C951.314,503.238 952.755,499.532 955.04,497.039C958.632,493.121 962.986,491.586 967.765,491.391C969.416,491.323 971.154,491.599 972.843,491.795C974.368,490.529 976.11,489.843 977.979,489.604C979.522,489.407 981.488,489.406 983.643,490.469C984.899,490.16 986.195,489.826 987.472,489.486C987.908,489.192 988.345,488.942 988.774,488.734C990.809,487.745 992.676,487.407 994.399,487.554C994.839,487.426 995.248,487.306 995.621,487.195C1001.28,485.517 1006.42,483.548 1011.21,481.178C1012.31,477.536 1014.28,475.101 1016.07,473.776C1019.34,471.354 1022.51,471.038 1025.55,472.156C1025.99,471.813 1026.43,471.465 1026.87,471.112C1027.34,469.54 1028.07,468.275 1028.87,467.286C1030.57,465.189 1032.69,463.66 1035.48,463.322C1035.72,463.079 1035.96,462.834 1036.21,462.587C1041.57,457.133 1043.88,449.838 1047.59,443.382C1052.71,434.46 1058.1,424.686 1059.69,414.339C1061.07,405.373 1062.06,397.453 1066.21,389.309C1066.56,388.491 1068.62,383.643 1070.23,381.807C1072.68,379.028 1075.7,377.735 1078.79,377.627C1081.49,377.533 1084.84,378.173 1088.17,381.703C1093.3,387.158 1095.61,393.783 1096.38,400.913C1097.11,407.604 1096.16,414.816 1096.66,421.039C1097.56,422.322 1098.57,424.007 1098.92,425.441C1100.6,432.374 1098.9,444.24 1097.77,451.287C1096.51,459.152 1096.03,466.952 1094.09,474.678C1092.71,480.162 1088.33,484.907 1085.38,489.545C1080.95,496.507 1077.99,504.671 1073.05,511.18C1071.13,513.714 1068.87,515.679 1066.44,517.408C1064.42,518.849 1062.19,519.981 1060.35,521.764C1060.27,521.842 1060.19,521.919 1060.11,521.997C1058.82,524.964 1056.87,527.008 1054.67,528.27C1051.65,532.246 1049.02,536.501 1046.22,540.704C1041.13,548.336 1038.55,556.859 1035.19,564.904C1031.55,573.606 1027.15,581.812 1019.79,588.691C1020.94,589.751 1021.88,591.105 1022.59,592.758C1023.39,594.64 1023.79,597.044 1023.21,599.791C1022.8,601.736 1020.68,605.817 1020.21,606.714C1019.25,609.411 1017.59,619.636 1015.93,624.076C1014.2,628.681 1011.2,630.926 1009.3,631.807C1010.99,635.674 1011.15,640.599 1007.85,646.256C1004.31,652.314 998.739,656.924 992.191,660.415C984.482,664.525 975.354,667.033 968.39,669.565C947.702,677.088 924.557,677.574 902.841,677.574C890.797,677.574 878.03,678.47 866.039,675.703C854.176,672.965 841.279,674.026 829.45,671.808C824.906,670.956 819.91,670.212 815.524,668.851C815.094,668.718 813.614,667.96 812.388,667.315C809.909,666.798 807.624,665.346 806.109,663.075C803.004,658.416 804.443,654.899 805.068,653.388C806.456,650.034 809.317,646.731 815.218,647.201C816.044,647.267 817.402,647.487 819.005,648.215C819.704,648.533 821.431,649.519 822.229,649.98ZM824.413,658.081C824.605,656.461 824.35,654.381 822.75,651.98C823.998,653.852 824.531,655.993 824.413,658.081ZM949.248,622.339C949.145,622.683 949.074,622.881 949.074,622.881C949.074,622.881 949.153,622.683 949.248,622.339Z"/>
                </g>
                <g transform="matrix(1,0,0,1,40.0203,-72.2318)">
                    <path d="M802.979,425.858C803.774,425.805 804.587,425.82 805.417,425.903C809.389,426.3 812.801,428.272 815.282,431.717C816.159,430.91 817.111,430.231 818.12,429.688C821.229,428.014 824.111,427.942 826.707,428.641C827.59,428.879 828.467,429.225 829.316,429.696C832.368,426.188 835.646,425.394 837.879,425.258C838.526,425.218 839.177,425.228 839.825,425.292C839.607,419.733 839.457,414.285 839.749,409.375C840.604,394.974 844.538,380.708 844.538,366.276C844.538,331.987 845.144,297.434 847.115,263.187C848.022,247.439 847.529,228.498 854.004,213.697C854.946,211.546 856.706,204.304 859.022,201.118C861.301,197.982 864.19,196.428 866.932,195.929C872.339,194.946 876.532,196.956 879.372,201.701C880.554,203.678 881.485,206.683 881.788,210.102C882.184,214.569 881.634,220.054 881.585,221.042C880.818,236.377 879.688,251.785 878.701,267.123C877.897,279.603 875.216,291.977 874.977,304.494C874.382,335.623 878.929,369.188 873.773,400.282C874.753,400.398 875.717,400.641 876.646,400.985C880.091,402.261 882.721,404.846 884.032,408.862C884.326,409.764 884.546,410.794 884.679,411.912C885.361,412.009 886.032,412.169 886.685,412.377C888.169,412.849 890.243,414.018 892,416.25C894.103,413.891 896.69,412.714 899.351,412.434C903.51,411.996 907.252,413.384 910.315,416.834C912.621,414.722 915.327,414.388 917.024,414.388C917.101,414.388 917.316,414.396 917.636,414.431C917.898,410.867 918.215,407.39 918.815,404.162C928.914,349.823 924.132,295.476 923.336,240.583C923.095,223.89 922.272,207.346 922.272,190.679C922.272,188.135 924.312,176.456 927.823,171.846C930.634,168.156 934.239,166.653 937.787,166.653C940.566,166.653 944.939,167.578 947.308,173.062C947.811,174.227 948.444,176.761 948.756,179.907C949.165,184.038 949.331,189.902 949.476,191.425C951.144,208.939 950.194,226.93 949.594,244.561C949.064,260.145 947.157,275.937 947.157,291.498C947.157,320.229 953.264,348.394 951.19,377.429C950.599,385.704 948.832,391.726 947.013,397.33C949.919,397.371 952.984,398.506 955.498,401.414C957.677,403.936 959.626,410.161 959.993,411.418C960.42,412.879 960.97,415.884 961.629,419.315C961.906,419.136 962.189,418.97 962.478,418.814C966.993,416.383 970.883,416.58 974.345,418.344C975.976,414.354 978.526,411.006 982.62,408.784C983.446,408.335 984.957,407.703 986.773,407.519C986.962,405.071 987.319,402.753 987.449,401.475C988.598,390.129 989.329,378.846 989.329,367.419C989.329,344.852 988.777,322.379 988.777,299.851C988.777,283.956 991.168,268.142 991.779,252.267C992.247,240.095 994.033,228.249 995.121,216.141C995.325,213.874 994.563,210.372 994.619,207.472C994.676,204.511 995.272,201.858 996.288,199.773C998.259,195.728 1001.48,193.955 1005.76,194.163C1006.34,194.191 1010.63,194.084 1013.72,198.762C1014.53,199.987 1017.97,206.911 1018.21,208.108C1019.3,213.716 1020.08,218.961 1020.08,224.719C1020.08,237.864 1018.97,252.039 1020.74,265.139C1023.5,285.521 1024.64,306.456 1027.95,326.764C1031.46,348.233 1033.45,367.943 1030.09,389.523C1028.05,402.619 1018.63,414.171 1013.46,425.721C1012.5,427.853 1009.74,432.169 1006.94,435.038C1004.99,437.033 1002.9,438.42 1001.18,439.12C997.39,440.672 993.277,440.381 989.289,437.532C989.122,437.413 988.955,437.287 988.786,437.154C987.102,439.846 984.797,441.974 981.642,443.376C978.09,444.954 974.736,444.81 971.531,443.049C970.019,445.383 968.016,447.042 965.64,448.038C962.635,449.298 958.16,450.027 951.921,446.373C951.051,445.864 950.056,445.071 949.075,443.961C948.111,445.228 947.003,446.493 945.725,447.77C942.309,451.186 938.454,451.758 934.24,449.79C933.527,449.457 932.561,448.891 931.58,447.982C930.225,450.544 928.365,451.864 926.683,452.661C924.673,453.613 922.523,453.919 920.252,453.509C918.96,453.276 917.349,452.666 915.763,451.562C913.717,452.517 911.45,452.867 909.043,452.614C907.293,452.43 905.567,451.849 903.947,450.72C903.836,451.04 903.72,451.351 903.6,451.652C900.889,458.395 895.998,461.803 890.458,462.037C888.89,462.103 887.211,461.858 885.592,461.138C885.481,461.317 885.367,461.494 885.251,461.669C883.406,464.451 880.3,467.679 876.975,469.216C874.507,470.357 871.909,470.865 869.253,470.492C868.512,473.562 867.495,476.853 865.928,479.084C863.097,483.113 859.152,485.403 853.924,485.247C852.62,485.208 851.361,485.003 850.161,484.635C850.426,486.381 850.604,487.966 850.661,489.339C850.758,491.715 850.105,502.419 847.432,508.104C845.77,511.64 843.51,514.021 840.91,515.333C840.913,515.346 840.915,515.36 840.918,515.373C842.387,523.063 843.585,530.992 841.384,538.619C842.125,539.047 842.855,539.471 843.574,539.89C846.692,541.706 854.289,546.714 858.603,551.604C862.071,555.535 863.671,559.791 863.671,563.227C863.671,564.669 863.408,565.975 862.908,567.156C867.043,568.307 871.638,569.912 874.762,571.895C879.143,574.675 881.563,578.187 882.236,581.901C883.915,581.495 885.603,581.128 887.286,580.84C892.799,579.895 898.272,579.737 903.416,580.958C908.786,582.232 912.111,587.626 910.837,592.996C909.563,598.366 904.168,601.692 898.798,600.417C895.375,599.605 891.69,600.264 888.02,601.076C882.768,602.237 877.553,603.918 872.81,604.867C857.918,607.845 842.986,605.49 828.294,603.557C821.607,602.677 812.361,601.907 806.647,597.989C797.821,591.938 790.925,585.369 783.586,578.24C781.627,576.337 778.146,572.178 776.909,568.397C775.371,563.697 775.733,559.222 779.016,555.609C778.282,554.7 777.615,553.792 777.049,552.907C773.606,547.529 773.54,542.24 774.98,538.88C775.306,538.118 775.722,537.376 776.226,536.67C775.225,535.31 774.185,533.389 773.443,530.898C771.749,525.209 770.513,513.397 769.682,510.175C766.597,498.22 766.576,486.947 765.988,474.707C765.01,454.371 761.519,433.961 762.764,413.536C764.918,378.217 763.261,341.281 769.067,306.441C770.165,299.853 772.951,293.714 774.619,287.377C774.711,287.027 777.707,275.947 778.871,274.031C780.541,271.283 782.664,270.206 783.961,269.698C786.896,268.548 789.625,268.803 792.15,270.065C794.875,271.427 797.379,274.005 798.68,278.064C800.327,283.202 799.35,293.545 799.145,296.176C797.867,312.571 800.526,328.606 799.014,344.938C796.918,367.571 801.231,390.71 802.585,413.27C802.837,417.468 802.953,421.663 802.979,425.858ZM782.948,436.497C783.083,429.512 783.064,422.527 782.682,415.536C782.299,422.526 782.496,429.514 782.948,436.497Z"/>
                </g>
                <g transform="matrix(1,0,0,1,40.0203,-72.2318)">
                    <path d="M791.865,415.163C791.998,415.837 792.918,420.513 793.152,422.429C793.59,426.02 793.582,430.111 793.9,434.057C794.077,436.248 794.188,438.417 795.189,440.085C798.029,444.817 796.492,450.965 791.759,453.805C787.026,456.644 780.879,455.107 778.039,450.375C775.972,446.929 774.799,442.801 774.241,438.372C773.676,433.889 773.808,429.02 773.299,424.85C772.814,420.867 771.352,414.814 772.342,410.853C773.681,405.498 779.115,402.238 784.469,403.576C789.643,404.87 792.862,409.988 791.865,415.163Z"/>
                </g>
                <g transform="matrix(0.346113,0,0,0.346113,762.053,39.2957)">
                    <path d="M667.477,1150.91C657.849,1149.16 649.212,1142.86 644.883,1133.27C642.214,1127.37 639.305,1120.97 639.016,1119.25C637.037,1107.41 641.384,1099.27 646.174,1093.75C648.812,1090.71 663.549,1073.24 688.348,1089.02C711.661,1103.86 725.091,1126.48 743.691,1147.04C764.268,1169.78 773.713,1198.15 777.268,1228.02C780.211,1252.75 779.03,1278.45 779.03,1301.21C779.03,1350.79 740.801,1400.12 701.421,1443.4C685.351,1461.07 669.55,1477.75 658.583,1493.35C655.198,1498.16 652.324,1502.79 650.326,1507.3C649.171,1509.91 647.8,1512.2 648.316,1514.52C652.006,1531.12 641.52,1547.6 624.915,1551.29C608.309,1554.98 591.831,1544.5 588.141,1527.89C584.812,1512.91 587.108,1496.71 595.149,1479.76C603.285,1462.6 618.129,1443.79 635.692,1424.1C654.216,1403.34 675.928,1381.17 692.936,1357.9C706.374,1339.52 717.387,1320.85 717.387,1301.21C717.387,1280.72 718.707,1257.57 716.057,1235.31C714.018,1218.18 709.78,1201.44 697.981,1188.4C686.817,1176.06 678.736,1162.1 667.477,1150.91Z"/>
                </g>
            </g>
        </g>
        <g id="human-made-round" serif:id="human made round">
            <g>
                <path d="M942.16,2650.79C942.338,2650.79 942.517,2650.78 942.699,2650.78C944.885,2650.78 949.635,2651.06 952.323,2652C955.558,2653.12 957.913,2654.97 959.525,2656.85C960.601,2658.11 963.534,2662.22 963.419,2669.67C964.443,2673.42 964.268,2677.6 962.418,2682.23C962.326,2682.46 962.232,2682.69 962.137,2682.92C958.578,2709.58 947.998,2763.14 934.836,2795.11C929.2,2808.79 922.548,2818.88 916.396,2823.67C907.574,2830.54 898.543,2831.13 889.598,2825.54C886.915,2823.86 884.304,2821.23 882.63,2817.05C881.113,2813.25 880.348,2805.1 881.842,2794.04C886.928,2756.37 913.149,2669.22 916.693,2656.82C918.967,2648.86 927.276,2644.24 935.237,2646.51C937.995,2647.3 940.352,2648.82 942.16,2650.79Z"/>
                <path d="M1014.68,2711.33C1015.01,2708.95 1015.58,2706.51 1016.29,2704.07C1017.21,2700.89 1018.57,2697.69 1018.94,2694.65C1019.45,2690.58 1021.31,2686.34 1024.67,2682.59C1029.24,2677.48 1037.31,2673.11 1044.72,2671.84C1057.04,2669.73 1066.81,2675.2 1070.16,2685.27C1070.6,2686.58 1071.08,2688.63 1071.11,2691.43C1071.14,2694.73 1070.36,2701.4 1068.81,2710.25C1063.43,2740.95 1049.01,2802.07 1041.13,2828.78C1038.53,2837.61 1036.05,2843.45 1034.84,2845.25C1027.9,2855.67 1012.6,2857.53 1002.2,2853.53C998.966,2852.28 995.856,2850.02 993.549,2846.06C991.569,2842.67 989.795,2834.95 990.507,2824.11C992.068,2800.35 1002.32,2753.75 1010.62,2724.49C1012,2719.62 1013.38,2715.19 1014.68,2711.33Z"/>
                <path d="M941.792,2746.06C938.824,2742.51 936.651,2738.33 935.008,2733.8C932.39,2726.58 931.686,2718.09 930.038,2711.5C929.943,2711.12 929.44,2707.13 929.006,2703.61C925.741,2699.74 924.507,2694.32 926.223,2689.17C928.822,2681.38 933.545,2679.14 935.735,2678.22C940.917,2676.06 945.952,2676.52 950.739,2680.01C952.615,2681.38 955.845,2684.65 957.331,2690.4C958.309,2694.18 959.184,2703.09 959.387,2705.25C960.453,2709.96 961.055,2715.57 962.391,2720.85C963.099,2723.64 963.556,2726.89 967.159,2727.41C974.511,2728.46 980.789,2729.92 986.758,2730.59C992.723,2731.26 998.233,2730.82 1004.97,2726.53C1009.65,2723.55 1014.56,2716.12 1017.98,2711.85C1019.06,2710.49 1021.72,2708.13 1023.38,2707.2C1026.48,2705.48 1029.39,2705.18 1031.44,2705.25C1035.36,2705.39 1038.54,2706.87 1041.08,2709.2C1043.43,2711.36 1045.99,2714.67 1045.99,2720.39C1045.99,2723.4 1044.14,2730.03 1040.44,2738.47C1035.27,2750.3 1026.13,2768.71 1026.13,2784.1C1026.13,2788.75 1025.77,2798.05 1025.77,2798.05C1025.45,2806 1018.98,2812.32 1011.03,2812.45C1003.07,2812.58 996.397,2806.48 995.82,2798.54C995.82,2798.54 995.581,2793.59 994.876,2791.24C992.983,2784.93 988.204,2781.02 982.683,2778.45C975.29,2775 966.534,2773.8 958.655,2773.8C944.158,2773.8 938.599,2781.54 929.127,2789.37C928.573,2794.46 925.421,2799.14 920.42,2801.42C909.552,2806.36 903.56,2801.27 901.269,2799.09C898.16,2796.13 895.912,2791.9 896.55,2786.02C896.78,2783.9 897.791,2780.43 900.131,2776.9C902.618,2773.14 906.951,2768.64 908.614,2767.36C920.703,2758.06 929.035,2749.86 941.792,2746.06Z"/>
                <path d="M1097.82,2699.8C1097.61,2696.84 1098.28,2693.78 1099.92,2691.04C1104.08,2684.12 1109.34,2682.75 1113.37,2682.96C1114.06,2682.45 1114.78,2682.01 1115.49,2681.62C1118.47,2679.98 1122.74,2678.78 1128.06,2680.53C1130.72,2681.4 1136.34,2685.21 1140.17,2689.29C1143.63,2692.99 1145.6,2696.93 1146.06,2698.47C1149.1,2708.61 1149.89,2721.98 1149.89,2732.92C1149.89,2747.77 1146.26,2777.48 1150.93,2800.25C1152.22,2806.5 1153.71,2812.45 1157.1,2816.15C1158.03,2816.94 1159.01,2817.67 1160.04,2818.32C1160.43,2818.57 1160.83,2818.82 1161.24,2819.04C1161.95,2819.33 1162.72,2819.55 1163.54,2819.7C1164.28,2819.84 1165,2819.97 1165.71,2820.08C1165.86,2820.05 1166.01,2820.02 1166.16,2819.98C1172.26,2818.31 1176.46,2816.45 1179.34,2813.86C1183.72,2809.92 1184.83,2804.64 1186.76,2798.62C1187.63,2795.86 1188.55,2792.98 1189.61,2789.96C1190.44,2775.26 1188.95,2758.6 1188.33,2743.67C1187.62,2726.81 1188.12,2711.76 1191.65,2701.93C1194.68,2693.47 1199.77,2687.72 1206.42,2684.53C1212.47,2681.63 1220.42,2680.6 1230.85,2683.85C1237.68,2685.99 1244.29,2693.06 1246.45,2704.92C1248.58,2716.57 1246.84,2735.12 1247.62,2740.82C1251.15,2766.72 1251.17,2796.73 1244.09,2822.4C1238.91,2841.22 1229.92,2857.77 1216.39,2869.61C1211.58,2873.82 1205.12,2876.52 1197.96,2878.03C1191.49,2879.38 1184.29,2879.59 1179.01,2880.98C1154.01,2887.56 1137.41,2883.74 1125.62,2875.37C1109.61,2863.98 1102.18,2841.48 1095.99,2816.69C1090.15,2793.34 1094.75,2757.65 1096.9,2734.04C1097.62,2726.07 1096.25,2717.77 1096.25,2709.87C1096.25,2707.84 1097.16,2703.02 1097.82,2699.8ZM1219.58,2770.71C1219.7,2770.82 1219.83,2770.93 1219.95,2771.05C1219.83,2764.62 1219.41,2758.24 1218.76,2752.06C1218.98,2756.33 1219.2,2760.68 1219.38,2765.03C1219.46,2766.92 1219.53,2768.82 1219.58,2770.71ZM1137.11,2698.89C1137.35,2697.82 1137.48,2696.64 1137.48,2695.33C1137.48,2696.33 1137.34,2697.54 1137.11,2698.89Z"/>
                <path d="M1282.12,2684.23C1284.19,2683.44 1286.17,2682.8 1287.53,2682.28C1299.24,2677.78 1308.24,2678.11 1315.73,2680.61C1322.91,2683 1328.92,2687.68 1334.51,2693.87C1343.55,2703.85 1350.92,2720.76 1376.13,2720.76C1379.71,2720.76 1382.48,2720.26 1384.55,2718.91C1387.88,2716.74 1389.16,2712.9 1390.44,2708.95C1393.1,2700.78 1394.5,2691.59 1397.09,2683.63C1400.33,2673.67 1405.34,2665.35 1413.18,2659.92C1420.9,2654.58 1431.78,2651.47 1448.19,2654.45C1452.09,2655.16 1455.83,2657.2 1458.79,2661C1461.65,2664.69 1463.68,2672.81 1464.31,2675.76C1471.58,2709.7 1478.35,2747.57 1481.82,2781.14C1482.32,2785.98 1484.91,2790.62 1486.67,2795.5C1488.72,2801.18 1490.17,2807 1490.17,2813.05C1490.17,2815.62 1490.72,2818.73 1490.46,2821.51C1489.95,2826.89 1487.85,2831.66 1483.52,2835.45C1481.68,2837.06 1478.55,2838.97 1474.08,2839.39C1469.92,2839.77 1462.13,2837.96 1460.19,2836.99C1452.1,2832.94 1447.31,2827.24 1443.51,2820.67C1439.55,2813.83 1438.3,2804.55 1423.12,2800.93C1419.34,2800.03 1418.44,2803.89 1417.11,2806.97C1414.59,2812.83 1413.13,2819.62 1411.79,2825.14C1409.75,2833.58 1407.04,2840.05 1404.68,2842.81C1401.82,2846.14 1398.51,2847.82 1395.23,2848.52C1391.76,2849.27 1388.01,2849.06 1384.06,2847.44C1380.67,2846.05 1376.46,2842.96 1372.16,2838.36C1368.25,2834.17 1363.72,2828.33 1358.64,2823.56C1356.28,2821.34 1354.21,2818.72 1351.42,2818.72C1350.38,2818.72 1350.19,2819.86 1349.73,2820.71C1348.83,2822.4 1348.13,2824.32 1347.52,2826.34C1344.39,2836.64 1343.15,2848.76 1340.47,2856.12C1337.63,2863.93 1332.95,2868.66 1328.07,2870.84C1322.5,2873.33 1314.92,2874.12 1305.49,2867.26C1303.02,2865.47 1300.31,2862.52 1298.02,2858.15C1295.35,2853.05 1292.74,2844.81 1290.52,2834.84C1284.34,2807.06 1280.15,2763.68 1277.06,2751.33C1274.29,2740.22 1272.69,2728.84 1270.04,2717.56C1269.78,2716.47 1268.59,2712.19 1267.72,2709.12C1267.71,2709.09 1267.71,2709.07 1267.7,2709.04C1265.87,2706.56 1264.8,2703.49 1264.8,2700.18C1264.8,2691.74 1269.24,2688.46 1270.61,2687.37C1274.02,2684.66 1277.77,2683.72 1281.76,2684.18C1281.87,2684.19 1282,2684.21 1282.12,2684.23ZM1325.64,2729.56C1325.82,2732.47 1325.82,2735.42 1325.84,2738.19C1327.17,2737 1328.6,2735.92 1330.12,2734.97C1330.35,2734.83 1330.58,2734.69 1330.81,2734.56C1328.99,2732.94 1327.27,2731.26 1325.64,2729.56Z"/>
                <path d="M1322.65,2760.33C1321.57,2761.45 1320.3,2762.43 1318.85,2763.2C1311.53,2767.07 1302.44,2764.27 1298.57,2756.96C1294.74,2749.72 1295.44,2738.11 1298.63,2730.67C1302.27,2722.18 1307.72,2718.93 1312.4,2717.65C1317.76,2716.18 1323.97,2716.93 1330.14,2721.56C1334.34,2724.7 1339.21,2730.78 1343.77,2737.71C1348.09,2744.29 1352,2751.98 1355.27,2754.84C1361.5,2760.29 1362.13,2769.78 1356.68,2776.01C1351.23,2782.24 1341.75,2782.87 1335.52,2777.42C1331.95,2774.3 1327.31,2767.58 1322.65,2760.33Z"/>
                <path d="M1529.27,2629.25C1532.99,2621.88 1541.98,2618.89 1549.37,2622.58C1556.78,2626.28 1559.78,2635.3 1556.08,2642.71C1555.42,2644.03 1555.8,2643.34 1554.94,2644.78C1550.68,2651.88 1541.45,2654.18 1534.36,2649.93C1527.26,2645.67 1524.95,2636.44 1529.21,2629.35C1529.23,2629.31 1529.25,2629.28 1529.27,2629.25Z"/>
                <path d="M1663.77,2699.13C1664.38,2699.67 1670.16,2704.76 1674.29,2708.1C1681.38,2713.8 1688.64,2720.09 1692.29,2725.12C1697.43,2732.22 1697.82,2739.11 1696.13,2744.16C1694.33,2749.56 1688.72,2755.92 1677.22,2757.17C1669.81,2757.97 1657.4,2756.92 1645.06,2756.47C1636.5,2756.16 1627.9,2755.52 1622.93,2758.13C1611.98,2763.9 1592.62,2786.46 1577.67,2798.41C1571.17,2803.61 1565.09,2807.16 1560.33,2808.62C1556.05,2809.93 1552.18,2809.99 1548.86,2809.28C1543.4,2808.11 1539.38,2806.45 1536.27,2803.76C1533.34,2801.22 1530.81,2797.79 1529.41,2792.23C1527.34,2783.92 1525.79,2754.98 1525.21,2723.51C1518.8,2698.21 1510.17,2670.52 1510.17,2649.36C1510.17,2643.86 1512.14,2634.63 1515.56,2629.97C1518.19,2626.38 1522.34,2623.02 1527.27,2620.31C1531.85,2617.79 1537.21,2615.77 1540.95,2614.07C1564.84,2603.21 1582.15,2609.56 1596.96,2622.51C1607.92,2632.09 1617.13,2646.41 1627.4,2657.7C1640.54,2672.15 1652.76,2682.22 1663.77,2699.13ZM1574.32,2687.56C1573.95,2688.68 1573.15,2691.26 1572.84,2693.17C1571.49,2701.59 1571.81,2712.68 1573.61,2722.1C1574.28,2725.66 1575.97,2730.1 1576.98,2732.55C1582.53,2731.65 1588.46,2728.11 1593.31,2726.25C1601.18,2723.22 1606.12,2720.48 1607.61,2716.23C1609.17,2711.76 1606.2,2707.17 1602.99,2702.3C1599.44,2696.94 1594.72,2691.68 1589.66,2686.77C1583.83,2685.45 1578.07,2685.28 1574.32,2687.56Z"/>
                <path d="M1657.09,2561.01C1657.99,2559.96 1659.07,2558.94 1660.37,2557.99C1662.16,2556.68 1667.24,2554.24 1668.78,2553.52C1671.57,2550.82 1675.17,2548.97 1679.76,2548.35C1684.24,2547.75 1691.02,2548.81 1698.96,2551.72C1707.11,2554.7 1717.48,2559.63 1727.67,2562.79C1731.65,2564.02 1735.57,2564.99 1739.24,2565.18C1741.12,2565.28 1742.9,2565.31 1744.38,2564.52C1750.1,2561.44 1747.88,2556.02 1746.18,2550.74C1743.53,2542.52 1739.34,2534.01 1736.72,2526.37C1732.16,2513.09 1732.57,2501.38 1738.78,2493.09C1742.93,2487.54 1750.15,2482.46 1763.08,2480.61C1770.43,2479.56 1777.38,2482.15 1783.24,2488.18C1788.63,2493.72 1792.82,2504.27 1796.26,2508.65C1807.11,2522.46 1857.09,2603 1865.26,2621.72C1869.34,2631.06 1866.33,2637.64 1865.27,2639.34C1859.65,2648.33 1851.43,2652.38 1841,2652.78C1834.54,2653.02 1826.83,2651.52 1818.51,2649.2C1809.29,2646.63 1799.02,2642.96 1789.04,2641.86C1782.54,2641.14 1776.1,2641.44 1770.92,2646.15C1766.82,2649.88 1768.43,2654.76 1769.78,2659.47C1771.67,2666.12 1774.65,2672.78 1776.63,2678.85C1780.02,2689.24 1780.43,2698.68 1777.06,2706.03C1774.31,2712.03 1769.28,2717.51 1759.73,2720.92C1752.21,2723.6 1739.37,2723.42 1732.21,2718.86C1728.51,2716.5 1720.74,2707.63 1712.32,2695.24C1695.9,2671.1 1673.91,2633.07 1669.8,2623.21C1664.24,2609.87 1653.39,2598.46 1648.23,2584.54C1643.96,2578.68 1644.46,2570.4 1649.76,2565.11C1652.15,2562.72 1654.68,2561.55 1657.09,2561.01Z"/>
                <path d="M1827.89,2593.62C1830.87,2595.48 1833.21,2598.39 1834.3,2602.02C1836.33,2608.81 1833.69,2613.16 1831.75,2615.65C1829.75,2618.21 1822.19,2625.82 1811.5,2618.92C1808.97,2617.28 1793.97,2602.27 1790.9,2597.81C1786.42,2591.28 1780.4,2578.79 1774,2568.53C1771.41,2564.38 1769.28,2560.38 1766.66,2558.93C1759.43,2554.91 1756.82,2545.76 1760.84,2538.53C1764.86,2531.29 1774,2528.68 1781.23,2532.7C1785.95,2535.32 1791.11,2540.42 1795.84,2547.17C1803.31,2557.82 1810.48,2573.32 1815.62,2580.81C1817.18,2583.08 1825.57,2591.34 1827.89,2593.62ZM1806.13,2600.46C1805.03,2602.84 1804.23,2606.19 1805.56,2610.64C1804.51,2607.15 1804.8,2603.57 1806.13,2600.46Z"/>
                <path d="M1875.81,2376.48C1876.11,2375.68 1876.35,2375.07 1876.47,2374.77C1879.99,2365.97 1884.98,2360.3 1890.62,2356.51C1898.44,2351.28 1907.97,2349.66 1918.43,2350.2C1925.52,2350.56 1933.14,2351.92 1940.59,2352.43C1946.84,2352.86 1953.18,2353.28 1957.64,2347.99C1963.78,2340.7 1966.87,2335.7 1966.7,2331.18C1966.59,2328.23 1964.65,2326.1 1962.83,2323.88C1960.3,2320.81 1957.4,2317.89 1954.75,2314.85C1947.42,2306.47 1941.94,2297.2 1941.94,2285.43C1941.94,2283.36 1942.43,2280.28 1944,2276.81C1946.26,2271.82 1952.02,2263.82 1953.86,2261.52C1962.3,2250.97 1970.61,2246.48 1978.28,2245.08C1986.16,2243.63 1994.03,2245.29 2002.11,2249.76C2009.82,2254.02 2018.09,2261.39 2027.7,2269.15C2038.1,2277.54 2050.1,2286.92 2061.9,2293.25C2067.14,2296.07 2099.66,2317.92 2113.02,2328.49C2120.02,2334.04 2123.07,2339.47 2123.54,2341.05C2126.19,2349.87 2124.81,2355.92 2122.77,2359.87C2120.39,2364.48 2116.62,2367.74 2111.28,2369.43C2107.72,2370.57 2102.84,2370.91 2097.01,2370.02C2089.8,2368.91 2079.9,2365.66 2070.16,2363.79C2066.23,2363.04 2062.34,2362.48 2058.85,2362.85C2057.22,2363.02 2055.68,2363.44 2055,2365.22C2052.61,2371.51 2055.62,2378.71 2058.49,2385C2062.75,2394.35 2068.39,2402.08 2070.12,2405.12C2073.77,2411.53 2072.51,2416.56 2072.01,2418.22C2070.22,2424.18 2066.39,2427.51 2061.66,2429.26C2057.53,2430.78 2051.31,2430.17 2047.73,2429.05C2041.75,2427.18 2034.06,2423.65 2026.52,2422.31C2023.83,2421.83 2020.97,2420.97 2019.12,2423.28C2015.37,2427.97 2013.31,2431.74 2013.12,2435.21C2012.89,2439.23 2015.55,2442.1 2017.88,2444.82C2021.06,2448.53 2024.55,2451.84 2027.21,2454.98C2032.08,2460.74 2034.74,2466.61 2035.06,2472.16C2035.36,2477.31 2034.09,2482.64 2029.76,2488.05C2026.1,2492.63 2021.87,2494.85 2017.65,2495.78C2012.2,2496.99 2006.17,2495.95 2000.4,2492.35C1980.9,2480.16 1933.35,2451.78 1901.18,2428.32C1885.83,2417.13 1873.86,2406.69 1868.62,2399.34C1863.8,2392.61 1865.37,2383.23 1872.1,2378.42C1873.27,2377.58 1874.52,2376.94 1875.81,2376.48Z"/>
                <path d="M1983.48,2342.78C1983.65,2341.89 1983.92,2341.01 1984.26,2340.14C1987.34,2332.45 1996.08,2328.71 2003.76,2331.78C2008.19,2333.56 2011.52,2336.84 2012.87,2342.22C2013.25,2343.75 2013.49,2345.68 2013.21,2347.96C2012.97,2350 2010.88,2354.99 2010.04,2356.72C2007.14,2362.73 2001.72,2368.4 1994.87,2373C1987.06,2378.26 1977.39,2382.28 1970.31,2384.64C1958.34,2388.63 1941.71,2387.07 1926.34,2384.68C1920.3,2383.74 1914.5,2382.75 1909.53,2382.36C1907.66,2382.21 1904.93,2382.32 1904.22,2382.35C1903.69,2382.63 1903.15,2382.95 1902.63,2383.26C1905.22,2385.35 1908.54,2387.96 1910.91,2389.61C1915.2,2392.62 1919.03,2395.59 1921.55,2398.34C1927.14,2404.44 1926.73,2413.94 1920.62,2419.53C1914.52,2425.12 1905.03,2424.71 1899.43,2418.61C1895.97,2414.83 1888.53,2410.91 1882.94,2406.38C1874.14,2399.24 1869.1,2390.53 1869.26,2382.31C1869.41,2374.6 1873.59,2364.11 1891.37,2355.22C1897.84,2351.99 1909.64,2351.79 1923.3,2353.85C1935.75,2355.72 1950.64,2359.58 1960.83,2356.18C1965.05,2354.78 1970.58,2352.6 1975.54,2349.72C1978.62,2347.93 1981.8,2346.23 1983.03,2343.68C1983.11,2343.51 1983.29,2343.16 1983.48,2342.78Z"/>
                <path d="M2017.7,2182.35C2016.8,2180.48 2016.26,2178.75 2016.02,2177.27C2015.13,2171.93 2016.23,2166.34 2018.75,2160.81C2020.02,2158.01 2022.29,2155.35 2022.78,2152.57C2025.33,2138.13 2031.7,2129.07 2039.84,2123.28C2047.55,2117.79 2057.32,2115.23 2068.45,2115.06C2081.06,2114.86 2095.78,2117.8 2110.21,2120.48C2121.78,2122.64 2133.1,2124.8 2142.3,2123.35C2147.74,2122.49 2181.97,2121.03 2196.47,2124.55C2207.22,2127.16 2212.01,2134 2213.2,2138.78C2216.65,2152.56 2209.77,2163.81 2196.57,2172.98C2191.12,2176.77 2184.48,2180.32 2178.78,2184.39C2175.95,2186.41 2172.99,2188.16 2172.12,2191.05C2167.75,2205.62 2164.41,2219.03 2162.74,2234.14C2162.07,2240.16 2165.28,2247.21 2166.24,2253.52C2167.72,2263.2 2166.22,2271.8 2160.65,2278.49C2155.38,2284.82 2147.13,2288.49 2139.2,2288.49C2138.39,2288.49 2133.26,2288.03 2126.78,2283.24C2112.01,2272.36 2055.84,2226.52 2032.55,2206.24C2024.83,2199.52 2020.22,2194.5 2019.49,2193.28C2017.44,2189.86 2016.91,2185.96 2017.7,2182.35ZM2088.43,2180.57C2089.9,2183.47 2095.35,2193.91 2100.65,2199.81C2104.7,2204.32 2111.05,2209.18 2115.14,2212.11C2117.81,2205.64 2122.55,2198.65 2126.69,2191.6C2127.92,2189.49 2129.08,2187.38 2129.88,2185.24C2130.35,2183.98 2130.92,2182.77 2130.57,2181.52C2128.27,2173.48 2119.37,2171.45 2111.03,2171.59C2102.28,2171.74 2092.81,2174.4 2088.43,2180.57Z"/>
                <path d="M2058.06,2030.89C2057.46,2025.58 2058.1,2019.86 2059.75,2014.04C2062.19,2005.46 2067.11,1996.56 2068.83,1990.33C2071.76,1979.72 2073.03,1965.07 2077.24,1952.25C2080.99,1940.85 2086.89,1930.8 2096.04,1923.93C2116.77,1908.39 2157.71,1900.97 2191.69,1908.5C2216.43,1913.99 2237.13,1927.23 2246.12,1948.23C2252.3,1962.64 2254.22,2013.75 2246.94,2045.88C2244.81,2055.32 2241.84,2063.25 2238.38,2068.74C2234.49,2074.91 2229.67,2078.72 2224.72,2080.58C2221.82,2081.67 2214.54,2082.42 2204.55,2081.51C2177.56,2079.03 2121.54,2068.02 2110.84,2066.49C2099.16,2064.82 2086.79,2061.21 2075.3,2058.25C2071.86,2057.37 2067.53,2054.73 2064.14,2050.85C2060.67,2046.87 2058.24,2041.84 2057.9,2040.82C2056.36,2036.12 2057.41,2032.8 2057.93,2031.26C2057.97,2031.13 2058.01,2031.01 2058.06,2030.89ZM2061.5,2046.66C2061.13,2046.25 2060.78,2045.81 2060.45,2045.35C2060.8,2045.85 2061.15,2046.28 2061.5,2046.66ZM2167.19,2031.3C2169.43,2031.43 2171.72,2031.56 2174.03,2031.69C2178.54,2029.05 2182.62,2026.92 2186.33,2025C2192.15,2021.98 2196.86,2020.06 2200.31,2015.74C2203.65,2011.57 2205.63,2005.42 2207.43,1995.36C2207.09,1992.31 2206.54,1989.31 2205.81,1986.43C2202.78,1981.6 2198.41,1977.55 2193.38,1974.25C2183.2,1967.56 2170.26,1963.83 2157.72,1963.17C2136.94,1962.09 2115.52,1969.03 2117.72,1991.05C2120.46,2018.47 2143.36,2027.29 2167.19,2031.3Z"/>
                <path d="M2095.55,2013.36C2094.61,2001.1 2095.91,1989.06 2097.93,1976.96C2098.44,1973.88 2100.05,1970.03 2102.9,1966.27C2105.76,1962.5 2110.37,1958.33 2112.47,1956.01C2131.49,1934.99 2157.4,1923.48 2181.14,1927.77C2197.52,1930.74 2213.52,1940.91 2225.79,1961.94C2232.71,1973.81 2231.04,1988.19 2229.22,2000.93C2226.13,2022.55 2219.78,2033.29 2212.08,2039.47C2206.28,2044.12 2199.27,2046.61 2190.46,2047.82C2181.09,2049.1 2168.8,2048.81 2152.78,2052.14C2143.21,2054.14 2131.62,2052.9 2120.91,2050.37C2116.01,2053.05 2109.8,2052.89 2104.95,2049.43C2103.28,2048.24 2101.94,2046.77 2100.92,2045.14C2096.74,2044.5 2091.31,2043.59 2089.83,2042.92C2085.21,2040.85 2083,2037.61 2081.86,2035.11C2080.43,2031.99 2080.08,2028.74 2080.85,2025.35C2081.41,2022.88 2082.63,2019.87 2085.82,2017.07C2088.63,2014.62 2092.09,2013.4 2095.55,2013.36ZM2127.05,2021.19C2133.69,2022.96 2140.74,2024.01 2146.66,2022.78C2159.76,2020.05 2170.57,2019.47 2179.47,2018.78C2185.41,2018.32 2190.11,2018.8 2193.41,2015.98C2197,2012.91 2198.06,2006.95 2199.52,1996.69C2200.02,1993.19 2200.68,1989.5 2200.96,1985.8C2201.18,1982.79 2201.43,1979.71 2199.88,1977.06C2193.08,1965.4 2184.88,1958.94 2175.8,1957.29C2161.35,1954.68 2146.29,1963.34 2134.72,1976.13C2133.26,1977.74 2128.75,1982.45 2127.16,1984.11C2125.35,1995.41 2124.23,2006.66 2126.4,2018.27C2126.53,2018.97 2126.77,2019.98 2127.05,2021.19Z"/>
                <path d="M2079.3,1812.4C2079.34,1812.03 2079.56,1810.07 2079.55,1808.87C2079.55,1805.21 2079.18,1801.2 2079.01,1797.22C2078.67,1789.31 2079.26,1781.56 2081.86,1775.33C2084.31,1769.44 2090.1,1765.94 2096.12,1766.1C2096.49,1765.7 2096.84,1765.36 2097.18,1765.05C2100.75,1761.79 2104.3,1760.64 2107.33,1760.29C2113.41,1759.6 2120.88,1761.76 2125.58,1771.43C2128.24,1776.92 2130.38,1789.45 2135.46,1800.12C2137.79,1805.01 2140.8,1810.05 2147.45,1809.14C2150.55,1808.72 2152.03,1805.65 2153.74,1802.96C2157.74,1796.68 2160.63,1789.34 2163.53,1784.21C2170.51,1771.84 2180.16,1768.14 2188.89,1770.53C2198.89,1773.25 2204.95,1781.91 2207.35,1794.88C2208.07,1798.73 2208.56,1803.09 2209.56,1807.28C2210.19,1809.89 2210.54,1812.78 2213.06,1814.17C2215.62,1815.58 2219.29,1815.62 2224.44,1815.01C2225,1814.95 2224.89,1814.29 2225.06,1813.82C2225.37,1812.98 2225.61,1812.08 2225.81,1811.13C2226.82,1806.39 2226.98,1800.94 2227.22,1795.68C2227.55,1788.48 2228,1781.55 2229.38,1776.09C2230.97,1769.74 2233.85,1764.79 2237.61,1761.37C2245.36,1754.33 2252.45,1753.7 2257.67,1754.8C2264.53,1756.25 2272.12,1762.6 2275,1775.46C2280.02,1797.86 2273.58,1849.47 2271.22,1856.9C2269.76,1861.53 2264.11,1868.42 2252.32,1870.63C2235.1,1873.87 2194.71,1871.39 2187.19,1871.39C2172.21,1871.39 2156.5,1869.97 2140.85,1869.97C2131.62,1869.97 2122.38,1871.81 2114.61,1871.95C2104.37,1872.13 2095.89,1869.67 2089.67,1863.93C2083.95,1858.65 2079.23,1849.91 2079.17,1834.49C2079,1833.83 2077.44,1827.53 2077.2,1824.33C2076.88,1820.09 2077.54,1816.06 2079.3,1812.4ZM2243.2,1839.8C2242.98,1839.67 2242.76,1839.52 2242.55,1839.37C2242.53,1839.38 2242.51,1839.39 2242.5,1839.41C2242.73,1839.55 2242.97,1839.68 2243.2,1839.8Z"/>
            </g>
            <g transform="matrix(-0.485681,-0.874136,0.874136,-0.485681,208.275,3727.6)">
                <path d="M963.419,2669.67C964.443,2673.42 964.268,2677.6 962.418,2682.23C962.326,2682.46 962.232,2682.69 962.137,2682.92C958.578,2709.58 947.998,2763.14 934.836,2795.11C929.2,2808.79 922.548,2818.88 916.396,2823.67C907.574,2830.54 898.543,2831.13 889.598,2825.54C886.915,2823.86 884.304,2821.23 882.63,2817.05C881.113,2813.25 880.348,2805.1 881.842,2794.04C886.928,2756.37 913.149,2669.22 916.693,2656.82C918.967,2648.86 927.276,2644.24 935.237,2646.51C937.995,2647.3 940.352,2648.82 942.16,2650.79C942.338,2650.79 942.517,2650.78 942.699,2650.78C944.885,2650.78 949.635,2651.06 952.323,2652C955.558,2653.12 957.913,2654.97 959.525,2656.85C960.601,2658.11 963.534,2662.22 963.419,2669.67Z"/>
                <path d="M1014.68,2711.33C1015.01,2708.95 1015.58,2706.51 1016.29,2704.07C1017.21,2700.89 1018.57,2697.69 1018.94,2694.65C1019.45,2690.58 1021.31,2686.34 1024.67,2682.59C1029.24,2677.48 1037.31,2673.11 1044.72,2671.84C1057.04,2669.73 1066.81,2675.2 1070.16,2685.27C1070.6,2686.58 1071.08,2688.63 1071.11,2691.43C1071.14,2694.73 1070.36,2701.4 1068.81,2710.25C1063.43,2740.95 1049.01,2802.07 1041.13,2828.78C1038.53,2837.61 1036.05,2843.45 1034.84,2845.25C1027.9,2855.67 1012.6,2857.53 1002.2,2853.53C998.966,2852.28 995.856,2850.02 993.549,2846.06C991.569,2842.67 989.795,2834.95 990.507,2824.11C992.068,2800.35 1002.32,2753.75 1010.62,2724.49C1012,2719.62 1013.38,2715.19 1014.68,2711.33Z"/>
                <path d="M929.127,2789.37C928.573,2794.46 925.421,2799.14 920.42,2801.42C909.552,2806.36 903.56,2801.27 901.269,2799.09C898.16,2796.13 895.912,2791.9 896.55,2786.02C896.78,2783.9 897.791,2780.43 900.131,2776.9C902.618,2773.14 906.951,2768.64 908.614,2767.36C920.703,2758.06 929.035,2749.86 941.792,2746.06C938.824,2742.51 936.651,2738.33 935.008,2733.8C932.39,2726.58 931.686,2718.09 930.038,2711.5C929.943,2711.12 929.44,2707.13 929.006,2703.61C925.741,2699.74 924.507,2694.32 926.223,2689.17C928.822,2681.38 933.545,2679.14 935.735,2678.22C940.917,2676.06 945.952,2676.52 950.739,2680.01C952.615,2681.38 955.845,2684.65 957.331,2690.4C958.309,2694.18 959.184,2703.09 959.387,2705.25C960.453,2709.96 961.055,2715.57 962.391,2720.85C963.099,2723.64 963.556,2726.89 967.159,2727.41C974.511,2728.46 980.789,2729.92 986.758,2730.59C992.723,2731.26 998.233,2730.82 1004.97,2726.53C1009.65,2723.55 1014.56,2716.12 1017.98,2711.85C1019.06,2710.49 1021.72,2708.13 1023.38,2707.2C1026.48,2705.48 1029.39,2705.18 1031.44,2705.25C1035.36,2705.39 1038.54,2706.87 1041.08,2709.2C1043.43,2711.36 1045.99,2714.67 1045.99,2720.39C1045.99,2723.4 1044.14,2730.03 1040.44,2738.47C1035.27,2750.3 1026.13,2768.71 1026.13,2784.1C1026.13,2788.75 1025.77,2798.05 1025.77,2798.05C1025.45,2806 1018.98,2812.32 1011.03,2812.45C1003.07,2812.58 996.397,2806.48 995.82,2798.54C995.82,2798.54 995.581,2793.59 994.876,2791.24C992.983,2784.93 988.204,2781.02 982.683,2778.45C975.29,2775 966.534,2773.8 958.655,2773.8C944.158,2773.8 938.599,2781.54 929.127,2789.37Z"/>
                <path d="M1097.82,2699.8C1097.61,2696.84 1098.28,2693.78 1099.92,2691.04C1104.08,2684.12 1109.34,2682.75 1113.37,2682.96C1114.06,2682.45 1114.78,2682.01 1115.49,2681.62C1118.47,2679.98 1122.74,2678.78 1128.06,2680.53C1130.72,2681.4 1136.34,2685.21 1140.17,2689.29C1143.63,2692.99 1145.6,2696.93 1146.06,2698.47C1149.1,2708.61 1149.89,2721.98 1149.89,2732.92C1149.89,2747.77 1146.26,2777.48 1150.93,2800.25C1152.22,2806.5 1153.71,2812.45 1157.1,2816.15C1158.03,2816.94 1159.01,2817.67 1160.04,2818.32C1160.43,2818.57 1160.83,2818.82 1161.24,2819.04C1161.95,2819.33 1162.72,2819.55 1163.54,2819.7C1164.28,2819.84 1165,2819.97 1165.71,2820.08C1165.86,2820.05 1166.01,2820.02 1166.16,2819.98C1172.26,2818.31 1176.46,2816.45 1179.34,2813.86C1183.72,2809.92 1184.83,2804.64 1186.76,2798.62C1187.63,2795.86 1188.55,2792.98 1189.61,2789.96C1190.44,2775.26 1188.95,2758.6 1188.33,2743.67C1187.62,2726.81 1188.12,2711.76 1191.65,2701.93C1194.68,2693.47 1199.77,2687.72 1206.42,2684.53C1212.47,2681.63 1220.42,2680.6 1230.85,2683.85C1237.68,2685.99 1244.29,2693.06 1246.45,2704.92C1248.58,2716.57 1246.84,2735.12 1247.62,2740.82C1251.15,2766.72 1251.17,2796.73 1244.09,2822.4C1238.91,2841.22 1229.92,2857.77 1216.39,2869.61C1211.58,2873.82 1205.12,2876.52 1197.96,2878.03C1191.49,2879.38 1184.29,2879.59 1179.01,2880.98C1154.01,2887.56 1137.41,2883.74 1125.62,2875.37C1109.61,2863.98 1102.18,2841.48 1095.99,2816.69C1090.15,2793.34 1094.75,2757.65 1096.9,2734.04C1097.62,2726.07 1096.25,2717.77 1096.25,2709.87C1096.25,2707.84 1097.16,2703.02 1097.82,2699.8ZM1219.58,2770.71C1219.7,2770.82 1219.83,2770.93 1219.95,2771.05C1219.83,2764.62 1219.41,2758.24 1218.76,2752.06C1218.98,2756.33 1219.2,2760.68 1219.38,2765.03C1219.46,2766.92 1219.53,2768.82 1219.58,2770.71ZM1137.11,2698.89C1137.35,2697.82 1137.48,2696.64 1137.48,2695.33C1137.48,2696.33 1137.34,2697.54 1137.11,2698.89Z"/>
                <path d="M1267.72,2709.12C1267.71,2709.09 1267.71,2709.07 1267.7,2709.04C1265.87,2706.56 1264.8,2703.49 1264.8,2700.18C1264.8,2691.74 1269.24,2688.46 1270.61,2687.37C1274.02,2684.66 1277.77,2683.72 1281.76,2684.18C1281.87,2684.19 1282,2684.21 1282.12,2684.23C1284.19,2683.44 1286.17,2682.8 1287.53,2682.28C1299.24,2677.78 1308.24,2678.11 1315.73,2680.61C1322.91,2683 1328.92,2687.68 1334.51,2693.87C1343.55,2703.85 1350.92,2720.76 1376.13,2720.76C1379.71,2720.76 1382.48,2720.26 1384.55,2718.91C1387.88,2716.74 1389.16,2712.9 1390.44,2708.95C1393.1,2700.78 1394.5,2691.59 1397.09,2683.63C1400.33,2673.67 1405.34,2665.35 1413.18,2659.92C1420.9,2654.58 1431.78,2651.47 1448.19,2654.45C1452.09,2655.16 1455.83,2657.2 1458.79,2661C1461.65,2664.69 1463.68,2672.81 1464.31,2675.76C1471.58,2709.7 1478.35,2747.57 1481.82,2781.14C1482.32,2785.98 1484.91,2790.62 1486.67,2795.5C1488.72,2801.18 1490.17,2807 1490.17,2813.05C1490.17,2815.62 1490.72,2818.73 1490.46,2821.51C1489.95,2826.89 1487.85,2831.66 1483.52,2835.45C1481.68,2837.06 1478.55,2838.97 1474.08,2839.39C1469.92,2839.77 1462.13,2837.96 1460.19,2836.99C1452.1,2832.94 1447.31,2827.24 1443.51,2820.67C1439.55,2813.83 1438.3,2804.55 1423.12,2800.93C1419.34,2800.03 1418.44,2803.89 1417.11,2806.97C1414.59,2812.83 1413.13,2819.62 1411.79,2825.14C1409.75,2833.58 1407.04,2840.05 1404.68,2842.81C1401.82,2846.14 1398.51,2847.82 1395.23,2848.52C1391.76,2849.27 1388.01,2849.06 1384.06,2847.44C1380.67,2846.05 1376.46,2842.96 1372.16,2838.36C1368.25,2834.17 1363.72,2828.33 1358.64,2823.56C1356.28,2821.34 1354.21,2818.72 1351.42,2818.72C1350.38,2818.72 1350.19,2819.86 1349.73,2820.71C1348.83,2822.4 1348.13,2824.32 1347.52,2826.34C1344.39,2836.64 1343.15,2848.76 1340.47,2856.12C1337.63,2863.93 1332.95,2868.66 1328.07,2870.84C1322.5,2873.33 1314.92,2874.12 1305.49,2867.26C1303.02,2865.47 1300.31,2862.52 1298.02,2858.15C1295.35,2853.05 1292.74,2844.81 1290.52,2834.84C1284.34,2807.06 1280.15,2763.68 1277.06,2751.33C1274.29,2740.22 1272.69,2728.84 1270.04,2717.56C1269.78,2716.47 1268.59,2712.19 1267.72,2709.12ZM1325.64,2729.56C1325.82,2732.47 1325.82,2735.42 1325.84,2738.19C1327.17,2737 1328.6,2735.92 1330.12,2734.97C1330.35,2734.83 1330.58,2734.69 1330.81,2734.56C1328.99,2732.94 1327.27,2731.26 1325.64,2729.56Z"/>
                <path d="M1322.65,2760.33C1321.57,2761.45 1320.3,2762.43 1318.85,2763.2C1311.53,2767.07 1302.44,2764.27 1298.57,2756.96C1294.74,2749.72 1295.44,2738.11 1298.63,2730.67C1302.27,2722.18 1307.72,2718.93 1312.4,2717.65C1317.76,2716.18 1323.97,2716.93 1330.14,2721.56C1334.34,2724.7 1339.21,2730.78 1343.77,2737.71C1348.09,2744.29 1352,2751.98 1355.27,2754.84C1361.5,2760.29 1362.13,2769.78 1356.68,2776.01C1351.23,2782.24 1341.75,2782.87 1335.52,2777.42C1331.95,2774.3 1327.31,2767.58 1322.65,2760.33Z"/>
                <path d="M1529.27,2629.25C1532.99,2621.88 1541.98,2618.89 1549.37,2622.58C1556.78,2626.28 1559.78,2635.3 1556.08,2642.71C1555.42,2644.03 1555.8,2643.34 1554.94,2644.78C1550.68,2651.88 1541.45,2654.18 1534.36,2649.93C1527.26,2645.67 1524.95,2636.44 1529.21,2629.35C1529.23,2629.31 1529.25,2629.28 1529.27,2629.25Z"/>
                <path d="M1663.77,2699.13C1664.38,2699.67 1670.16,2704.76 1674.29,2708.1C1681.38,2713.8 1688.64,2720.09 1692.29,2725.12C1697.43,2732.22 1697.82,2739.11 1696.13,2744.16C1694.33,2749.56 1688.72,2755.92 1677.22,2757.17C1669.81,2757.97 1657.4,2756.92 1645.06,2756.47C1636.5,2756.16 1627.9,2755.52 1622.93,2758.13C1611.98,2763.9 1592.62,2786.46 1577.67,2798.41C1571.17,2803.61 1565.09,2807.16 1560.33,2808.62C1556.05,2809.93 1552.18,2809.99 1548.86,2809.28C1543.4,2808.11 1539.38,2806.45 1536.27,2803.76C1533.34,2801.22 1530.81,2797.79 1529.41,2792.23C1527.34,2783.92 1525.79,2754.98 1525.21,2723.51C1518.8,2698.21 1510.17,2670.52 1510.17,2649.36C1510.17,2643.86 1512.14,2634.63 1515.56,2629.97C1518.19,2626.38 1522.34,2623.02 1527.27,2620.31C1531.85,2617.79 1537.21,2615.77 1540.95,2614.07C1564.84,2603.21 1582.15,2609.56 1596.96,2622.51C1607.92,2632.09 1617.13,2646.41 1627.4,2657.7C1640.54,2672.15 1652.76,2682.22 1663.77,2699.13ZM1574.32,2687.56C1573.95,2688.68 1573.15,2691.26 1572.84,2693.17C1571.49,2701.59 1571.81,2712.68 1573.61,2722.1C1574.28,2725.66 1575.97,2730.1 1576.98,2732.55C1582.53,2731.65 1588.46,2728.11 1593.31,2726.25C1601.18,2723.22 1606.12,2720.48 1607.61,2716.23C1609.17,2711.76 1606.2,2707.17 1602.99,2702.3C1599.44,2696.94 1594.72,2691.68 1589.66,2686.77C1583.83,2685.45 1578.07,2685.28 1574.32,2687.56Z"/>
                <path d="M1648.23,2584.54C1643.96,2578.68 1644.46,2570.4 1649.76,2565.11C1652.15,2562.72 1654.68,2561.55 1657.09,2561.01C1657.99,2559.96 1659.07,2558.94 1660.37,2557.99C1662.16,2556.68 1667.24,2554.24 1668.78,2553.52C1671.57,2550.82 1675.17,2548.97 1679.76,2548.35C1684.24,2547.75 1691.02,2548.81 1698.96,2551.72C1707.11,2554.7 1717.48,2559.63 1727.67,2562.79C1731.65,2564.02 1735.57,2564.99 1739.24,2565.18C1741.12,2565.28 1742.9,2565.31 1744.38,2564.52C1750.1,2561.44 1747.88,2556.02 1746.18,2550.74C1743.53,2542.52 1739.34,2534.01 1736.72,2526.37C1732.16,2513.09 1732.57,2501.38 1738.78,2493.09C1742.93,2487.54 1750.15,2482.46 1763.08,2480.61C1770.43,2479.56 1777.38,2482.15 1783.24,2488.18C1788.63,2493.72 1792.82,2504.27 1796.26,2508.65C1807.11,2522.46 1857.09,2603 1865.26,2621.72C1869.34,2631.06 1866.33,2637.64 1865.27,2639.34C1859.65,2648.33 1851.43,2652.38 1841,2652.78C1834.54,2653.02 1826.83,2651.52 1818.51,2649.2C1809.29,2646.63 1799.02,2642.96 1789.04,2641.86C1782.54,2641.14 1776.1,2641.44 1770.92,2646.15C1766.82,2649.88 1768.43,2654.76 1769.78,2659.47C1771.67,2666.12 1774.65,2672.78 1776.63,2678.85C1780.02,2689.24 1780.43,2698.68 1777.06,2706.03C1774.31,2712.03 1769.28,2717.51 1759.73,2720.92C1752.21,2723.6 1739.37,2723.42 1732.21,2718.86C1728.51,2716.5 1720.74,2707.63 1712.32,2695.24C1695.9,2671.1 1673.91,2633.07 1669.8,2623.21C1664.24,2609.87 1653.39,2598.46 1648.23,2584.54Z"/>
                <path d="M1827.89,2593.62C1830.87,2595.48 1833.21,2598.39 1834.3,2602.02C1836.33,2608.81 1833.69,2613.16 1831.75,2615.65C1829.75,2618.21 1822.19,2625.82 1811.5,2618.92C1808.97,2617.28 1793.97,2602.27 1790.9,2597.81C1786.42,2591.28 1780.4,2578.79 1774,2568.53C1771.41,2564.38 1769.28,2560.38 1766.66,2558.93C1759.43,2554.91 1756.82,2545.76 1760.84,2538.53C1764.86,2531.29 1774,2528.68 1781.23,2532.7C1785.95,2535.32 1791.11,2540.42 1795.84,2547.17C1803.31,2557.82 1810.48,2573.32 1815.62,2580.81C1817.18,2583.08 1825.57,2591.34 1827.89,2593.62ZM1806.13,2600.46C1805.03,2602.84 1804.23,2606.19 1805.56,2610.64C1804.51,2607.15 1804.8,2603.57 1806.13,2600.46Z"/>
                <path d="M1875.81,2376.48C1876.11,2375.68 1876.35,2375.07 1876.47,2374.77C1879.99,2365.97 1884.98,2360.3 1890.62,2356.51C1898.44,2351.28 1907.97,2349.66 1918.43,2350.2C1925.52,2350.56 1933.14,2351.92 1940.59,2352.43C1946.84,2352.86 1953.18,2353.28 1957.64,2347.99C1963.78,2340.7 1966.87,2335.7 1966.7,2331.18C1966.59,2328.23 1964.65,2326.1 1962.83,2323.88C1960.3,2320.81 1957.4,2317.89 1954.75,2314.85C1947.42,2306.47 1941.94,2297.2 1941.94,2285.43C1941.94,2283.36 1942.43,2280.28 1944,2276.81C1946.26,2271.82 1952.02,2263.82 1953.86,2261.52C1962.3,2250.97 1970.61,2246.48 1978.28,2245.08C1986.16,2243.63 1994.03,2245.29 2002.11,2249.76C2009.82,2254.02 2018.09,2261.39 2027.7,2269.15C2038.1,2277.54 2050.1,2286.92 2061.9,2293.25C2067.14,2296.07 2099.66,2317.92 2113.02,2328.49C2120.02,2334.04 2123.07,2339.47 2123.54,2341.05C2126.19,2349.87 2124.81,2355.92 2122.77,2359.87C2120.39,2364.48 2116.62,2367.74 2111.28,2369.43C2107.72,2370.57 2102.84,2370.91 2097.01,2370.02C2089.8,2368.91 2079.9,2365.66 2070.16,2363.79C2066.23,2363.04 2062.34,2362.48 2058.85,2362.85C2057.22,2363.02 2055.68,2363.44 2055,2365.22C2052.61,2371.51 2055.62,2378.71 2058.49,2385C2062.75,2394.35 2068.39,2402.08 2070.12,2405.12C2073.77,2411.53 2072.51,2416.56 2072.01,2418.22C2070.22,2424.18 2066.39,2427.51 2061.66,2429.26C2057.53,2430.78 2051.31,2430.17 2047.73,2429.05C2041.75,2427.18 2034.06,2423.65 2026.52,2422.31C2023.83,2421.83 2020.97,2420.97 2019.12,2423.28C2015.37,2427.97 2013.31,2431.74 2013.12,2435.21C2012.89,2439.23 2015.55,2442.1 2017.88,2444.82C2021.06,2448.53 2024.55,2451.84 2027.21,2454.98C2032.08,2460.74 2034.74,2466.61 2035.06,2472.16C2035.36,2477.31 2034.09,2482.64 2029.76,2488.05C2026.1,2492.63 2021.87,2494.85 2017.65,2495.78C2012.2,2496.99 2006.17,2495.95 2000.4,2492.35C1980.9,2480.16 1933.35,2451.78 1901.18,2428.32C1885.83,2417.13 1873.86,2406.69 1868.62,2399.34C1863.8,2392.61 1865.37,2383.23 1872.1,2378.42C1873.27,2377.58 1874.52,2376.94 1875.81,2376.48Z"/>
                <path d="M1904.22,2382.35C1903.69,2382.63 1903.15,2382.95 1902.63,2383.26C1905.22,2385.35 1908.54,2387.96 1910.91,2389.61C1915.2,2392.62 1919.03,2395.59 1921.55,2398.34C1927.14,2404.44 1926.73,2413.94 1920.62,2419.53C1914.52,2425.12 1905.03,2424.71 1899.43,2418.61C1895.97,2414.83 1888.53,2410.91 1882.94,2406.38C1874.14,2399.24 1869.1,2390.53 1869.26,2382.31C1869.41,2374.6 1873.59,2364.11 1891.37,2355.22C1897.84,2351.99 1909.64,2351.79 1923.3,2353.85C1935.75,2355.72 1950.64,2359.58 1960.83,2356.18C1965.05,2354.78 1970.58,2352.6 1975.54,2349.72C1978.62,2347.93 1981.8,2346.23 1983.03,2343.68C1983.11,2343.51 1983.29,2343.16 1983.48,2342.78C1983.65,2341.89 1983.92,2341.01 1984.26,2340.14C1987.34,2332.45 1996.08,2328.71 2003.76,2331.78C2008.19,2333.56 2011.52,2336.84 2012.87,2342.22C2013.25,2343.75 2013.49,2345.68 2013.21,2347.96C2012.97,2350 2010.88,2354.99 2010.04,2356.72C2007.14,2362.73 2001.72,2368.4 1994.87,2373C1987.06,2378.26 1977.39,2382.28 1970.31,2384.64C1958.34,2388.63 1941.71,2387.07 1926.34,2384.68C1920.3,2383.74 1914.5,2382.75 1909.53,2382.36C1907.66,2382.21 1904.93,2382.32 1904.22,2382.35Z"/>
                <path d="M2017.7,2182.35C2016.8,2180.48 2016.26,2178.75 2016.02,2177.27C2015.13,2171.93 2016.23,2166.34 2018.75,2160.81C2020.02,2158.01 2022.29,2155.35 2022.78,2152.57C2025.33,2138.13 2031.7,2129.07 2039.84,2123.28C2047.55,2117.79 2057.32,2115.23 2068.45,2115.06C2081.06,2114.86 2095.78,2117.8 2110.21,2120.48C2121.78,2122.64 2133.1,2124.8 2142.3,2123.35C2147.74,2122.49 2181.97,2121.03 2196.47,2124.55C2207.22,2127.16 2212.01,2134 2213.2,2138.78C2216.65,2152.56 2209.77,2163.81 2196.57,2172.98C2191.12,2176.77 2184.48,2180.32 2178.78,2184.39C2175.95,2186.41 2172.99,2188.16 2172.12,2191.05C2167.75,2205.62 2164.41,2219.03 2162.74,2234.14C2162.07,2240.16 2165.28,2247.21 2166.24,2253.52C2167.72,2263.2 2166.22,2271.8 2160.65,2278.49C2155.38,2284.82 2147.13,2288.49 2139.2,2288.49C2138.39,2288.49 2133.26,2288.03 2126.78,2283.24C2112.01,2272.36 2055.84,2226.52 2032.55,2206.24C2024.83,2199.52 2020.22,2194.5 2019.49,2193.28C2017.44,2189.86 2016.91,2185.96 2017.7,2182.35ZM2088.43,2180.57C2089.9,2183.47 2095.35,2193.91 2100.65,2199.81C2104.7,2204.32 2111.05,2209.18 2115.14,2212.11C2117.81,2205.64 2122.55,2198.65 2126.69,2191.6C2127.92,2189.49 2129.08,2187.38 2129.88,2185.24C2130.35,2183.98 2130.92,2182.77 2130.57,2181.52C2128.27,2173.48 2119.37,2171.45 2111.03,2171.59C2102.28,2171.74 2092.81,2174.4 2088.43,2180.57Z"/>
                <path d="M2058.06,2030.89C2057.46,2025.58 2058.1,2019.86 2059.75,2014.04C2062.19,2005.46 2067.11,1996.56 2068.83,1990.33C2071.76,1979.72 2073.03,1965.07 2077.24,1952.25C2080.99,1940.85 2086.89,1930.8 2096.04,1923.93C2116.77,1908.39 2157.71,1900.97 2191.69,1908.5C2216.43,1913.99 2237.13,1927.23 2246.12,1948.23C2252.3,1962.64 2254.22,2013.75 2246.94,2045.88C2244.81,2055.32 2241.84,2063.25 2238.38,2068.74C2234.49,2074.91 2229.67,2078.72 2224.72,2080.58C2221.82,2081.67 2214.54,2082.42 2204.55,2081.51C2177.56,2079.03 2121.54,2068.02 2110.84,2066.49C2099.16,2064.82 2086.79,2061.21 2075.3,2058.25C2071.86,2057.37 2067.53,2054.73 2064.14,2050.85C2060.67,2046.87 2058.24,2041.84 2057.9,2040.82C2056.36,2036.12 2057.41,2032.8 2057.93,2031.26C2057.97,2031.13 2058.01,2031.01 2058.06,2030.89ZM2061.5,2046.66C2061.13,2046.25 2060.78,2045.81 2060.45,2045.35C2060.8,2045.85 2061.15,2046.28 2061.5,2046.66ZM2167.19,2031.3C2169.43,2031.43 2171.72,2031.56 2174.03,2031.69C2178.54,2029.05 2182.62,2026.92 2186.33,2025C2192.15,2021.98 2196.86,2020.06 2200.31,2015.74C2203.65,2011.57 2205.63,2005.42 2207.43,1995.36C2207.09,1992.31 2206.54,1989.31 2205.81,1986.43C2202.78,1981.6 2198.41,1977.55 2193.38,1974.25C2183.2,1967.56 2170.26,1963.83 2157.72,1963.17C2136.94,1962.09 2115.52,1969.03 2117.72,1991.05C2120.46,2018.47 2143.36,2027.29 2167.19,2031.3Z"/>
                <path d="M2120.91,2050.37C2116.01,2053.05 2109.8,2052.89 2104.95,2049.43C2103.28,2048.24 2101.94,2046.77 2100.92,2045.14C2096.74,2044.5 2091.31,2043.59 2089.83,2042.92C2085.21,2040.85 2083,2037.61 2081.86,2035.11C2080.43,2031.99 2080.08,2028.74 2080.85,2025.35C2081.41,2022.88 2082.63,2019.87 2085.82,2017.07C2088.63,2014.62 2092.09,2013.4 2095.55,2013.36C2094.61,2001.1 2095.91,1989.06 2097.93,1976.96C2098.44,1973.88 2100.05,1970.03 2102.9,1966.27C2105.76,1962.5 2110.37,1958.33 2112.47,1956.01C2131.49,1934.99 2157.4,1923.48 2181.14,1927.77C2197.52,1930.74 2213.52,1940.91 2225.79,1961.94C2232.71,1973.81 2231.04,1988.19 2229.22,2000.93C2226.13,2022.55 2219.78,2033.29 2212.08,2039.47C2206.28,2044.12 2199.27,2046.61 2190.46,2047.82C2181.09,2049.1 2168.8,2048.81 2152.78,2052.14C2143.21,2054.14 2131.62,2052.9 2120.91,2050.37ZM2127.05,2021.19C2133.69,2022.96 2140.74,2024.01 2146.66,2022.78C2159.76,2020.05 2170.57,2019.47 2179.47,2018.78C2185.41,2018.32 2190.11,2018.8 2193.41,2015.98C2197,2012.91 2198.06,2006.95 2199.52,1996.69C2200.02,1993.19 2200.68,1989.5 2200.96,1985.8C2201.18,1982.79 2201.43,1979.71 2199.88,1977.06C2193.08,1965.4 2184.88,1958.94 2175.8,1957.29C2161.35,1954.68 2146.29,1963.34 2134.72,1976.13C2133.26,1977.74 2128.75,1982.45 2127.16,1984.11C2125.35,1995.41 2124.23,2006.66 2126.4,2018.27C2126.53,2018.97 2126.77,2019.98 2127.05,2021.19Z"/>
                <path d="M2079.17,1834.49C2079,1833.83 2077.44,1827.53 2077.2,1824.33C2076.88,1820.09 2077.54,1816.06 2079.3,1812.4C2079.34,1812.03 2079.56,1810.07 2079.55,1808.87C2079.55,1805.21 2079.18,1801.2 2079.01,1797.22C2078.67,1789.31 2079.26,1781.56 2081.86,1775.33C2084.31,1769.44 2090.1,1765.94 2096.12,1766.1C2096.49,1765.7 2096.84,1765.36 2097.18,1765.05C2100.75,1761.79 2104.3,1760.64 2107.33,1760.29C2113.41,1759.6 2120.88,1761.76 2125.58,1771.43C2128.24,1776.92 2130.38,1789.45 2135.46,1800.12C2137.79,1805.01 2140.8,1810.05 2147.45,1809.14C2150.55,1808.72 2152.03,1805.65 2153.74,1802.96C2157.74,1796.68 2160.63,1789.34 2163.53,1784.21C2170.51,1771.84 2180.16,1768.14 2188.89,1770.53C2198.89,1773.25 2204.95,1781.91 2207.35,1794.88C2208.07,1798.73 2208.56,1803.09 2209.56,1807.28C2210.19,1809.89 2210.54,1812.78 2213.06,1814.17C2215.62,1815.58 2219.29,1815.62 2224.44,1815.01C2225,1814.95 2224.89,1814.29 2225.06,1813.82C2225.37,1812.98 2225.61,1812.08 2225.81,1811.13C2226.82,1806.39 2226.98,1800.94 2227.22,1795.68C2227.55,1788.48 2228,1781.55 2229.38,1776.09C2230.97,1769.74 2233.85,1764.79 2237.61,1761.37C2245.36,1754.33 2252.45,1753.7 2257.67,1754.8C2264.53,1756.25 2272.12,1762.6 2275,1775.46C2280.02,1797.86 2273.58,1849.47 2271.22,1856.9C2269.76,1861.53 2264.11,1868.42 2252.32,1870.63C2235.1,1873.87 2194.71,1871.39 2187.19,1871.39C2172.21,1871.39 2156.5,1869.97 2140.85,1869.97C2131.62,1869.97 2122.38,1871.81 2114.61,1871.95C2104.37,1872.13 2095.89,1869.67 2089.67,1863.93C2083.95,1858.65 2079.23,1849.91 2079.17,1834.49ZM2243.2,1839.8C2242.98,1839.67 2242.76,1839.52 2242.55,1839.37C2242.53,1839.38 2242.51,1839.39 2242.5,1839.41C2242.73,1839.55 2242.97,1839.68 2243.2,1839.8Z"/>
            </g>
            <g transform="matrix(-0.528228,0.849103,-0.849103,-0.528228,3361.55,1736.11)">
                <path d="M942.16,2650.79C942.338,2650.79 942.517,2650.78 942.699,2650.78C944.885,2650.78 949.635,2651.06 952.323,2652C955.558,2653.12 957.913,2654.97 959.525,2656.85C960.601,2658.11 963.534,2662.22 963.419,2669.67C964.443,2673.42 964.268,2677.6 962.418,2682.23C962.326,2682.46 962.232,2682.69 962.137,2682.92C958.578,2709.58 947.998,2763.14 934.836,2795.11C929.2,2808.79 922.548,2818.88 916.396,2823.67C907.574,2830.54 898.543,2831.13 889.598,2825.54C886.915,2823.86 884.304,2821.23 882.63,2817.05C881.113,2813.25 880.348,2805.1 881.842,2794.04C886.928,2756.37 913.149,2669.22 916.693,2656.82C918.967,2648.86 927.276,2644.24 935.237,2646.51C937.995,2647.3 940.352,2648.82 942.16,2650.79Z"/>
                <path d="M1014.68,2711.33C1015.01,2708.95 1015.58,2706.51 1016.29,2704.07C1017.21,2700.89 1018.57,2697.69 1018.94,2694.65C1019.45,2690.58 1021.31,2686.34 1024.67,2682.59C1029.24,2677.48 1037.31,2673.11 1044.72,2671.84C1057.04,2669.73 1066.81,2675.2 1070.16,2685.27C1070.6,2686.58 1071.08,2688.63 1071.11,2691.43C1071.14,2694.73 1070.36,2701.4 1068.81,2710.25C1063.43,2740.95 1049.01,2802.07 1041.13,2828.78C1038.53,2837.61 1036.05,2843.45 1034.84,2845.25C1027.9,2855.67 1012.6,2857.53 1002.2,2853.53C998.966,2852.28 995.856,2850.02 993.549,2846.06C991.569,2842.67 989.795,2834.95 990.507,2824.11C992.068,2800.35 1002.32,2753.75 1010.62,2724.49C1012,2719.62 1013.38,2715.19 1014.68,2711.33Z"/>
                <path d="M929.127,2789.37C928.573,2794.46 925.421,2799.14 920.42,2801.42C909.552,2806.36 903.56,2801.27 901.269,2799.09C898.16,2796.13 895.912,2791.9 896.55,2786.02C896.78,2783.9 897.791,2780.43 900.131,2776.9C902.618,2773.14 906.951,2768.64 908.614,2767.36C920.703,2758.06 929.035,2749.86 941.792,2746.06C938.824,2742.51 936.651,2738.33 935.008,2733.8C932.39,2726.58 931.686,2718.09 930.038,2711.5C929.943,2711.12 929.44,2707.13 929.006,2703.61C925.741,2699.74 924.507,2694.32 926.223,2689.17C928.822,2681.38 933.545,2679.14 935.735,2678.22C940.917,2676.06 945.952,2676.52 950.739,2680.01C952.615,2681.38 955.845,2684.65 957.331,2690.4C958.309,2694.18 959.184,2703.09 959.387,2705.25C960.453,2709.96 961.055,2715.57 962.391,2720.85C963.099,2723.64 963.556,2726.89 967.159,2727.41C974.511,2728.46 980.789,2729.92 986.758,2730.59C992.723,2731.26 998.233,2730.82 1004.97,2726.53C1009.65,2723.55 1014.56,2716.12 1017.98,2711.85C1019.06,2710.49 1021.72,2708.13 1023.38,2707.2C1026.48,2705.48 1029.39,2705.18 1031.44,2705.25C1035.36,2705.39 1038.54,2706.87 1041.08,2709.2C1043.43,2711.36 1045.99,2714.67 1045.99,2720.39C1045.99,2723.4 1044.14,2730.03 1040.44,2738.47C1035.27,2750.3 1026.13,2768.71 1026.13,2784.1C1026.13,2788.75 1025.77,2798.05 1025.77,2798.05C1025.45,2806 1018.98,2812.32 1011.03,2812.45C1003.07,2812.58 996.397,2806.48 995.82,2798.54C995.82,2798.54 995.581,2793.59 994.876,2791.24C992.983,2784.93 988.204,2781.02 982.683,2778.45C975.29,2775 966.534,2773.8 958.655,2773.8C944.158,2773.8 938.599,2781.54 929.127,2789.37Z"/>
                <path d="M1097.82,2699.8C1097.61,2696.84 1098.28,2693.78 1099.92,2691.04C1104.08,2684.12 1109.34,2682.75 1113.37,2682.96C1114.06,2682.45 1114.78,2682.01 1115.49,2681.62C1118.47,2679.98 1122.74,2678.78 1128.06,2680.53C1130.72,2681.4 1136.34,2685.21 1140.17,2689.29C1143.63,2692.99 1145.6,2696.93 1146.06,2698.47C1149.1,2708.61 1149.89,2721.98 1149.89,2732.92C1149.89,2747.77 1146.26,2777.48 1150.93,2800.25C1152.22,2806.5 1153.71,2812.45 1157.1,2816.15C1158.03,2816.94 1159.01,2817.67 1160.04,2818.32C1160.43,2818.57 1160.83,2818.82 1161.24,2819.04C1161.95,2819.33 1162.72,2819.55 1163.54,2819.7C1164.28,2819.84 1165,2819.97 1165.71,2820.08C1165.86,2820.05 1166.01,2820.02 1166.16,2819.98C1172.26,2818.31 1176.46,2816.45 1179.34,2813.86C1183.72,2809.92 1184.83,2804.64 1186.76,2798.62C1187.63,2795.86 1188.55,2792.98 1189.61,2789.96C1190.44,2775.26 1188.95,2758.6 1188.33,2743.67C1187.62,2726.81 1188.12,2711.76 1191.65,2701.93C1194.68,2693.47 1199.77,2687.72 1206.42,2684.53C1212.47,2681.63 1220.42,2680.6 1230.85,2683.85C1237.68,2685.99 1244.29,2693.06 1246.45,2704.92C1248.58,2716.57 1246.84,2735.12 1247.62,2740.82C1251.15,2766.72 1251.17,2796.73 1244.09,2822.4C1238.91,2841.22 1229.92,2857.77 1216.39,2869.61C1211.58,2873.82 1205.12,2876.52 1197.96,2878.03C1191.49,2879.38 1184.29,2879.59 1179.01,2880.98C1154.01,2887.56 1137.41,2883.74 1125.62,2875.37C1109.61,2863.98 1102.18,2841.48 1095.99,2816.69C1090.15,2793.34 1094.75,2757.65 1096.9,2734.04C1097.62,2726.07 1096.25,2717.77 1096.25,2709.87C1096.25,2707.84 1097.16,2703.02 1097.82,2699.8ZM1219.58,2770.71C1219.7,2770.82 1219.83,2770.93 1219.95,2771.05C1219.83,2764.62 1219.41,2758.24 1218.76,2752.06C1218.98,2756.33 1219.2,2760.68 1219.38,2765.03C1219.46,2766.92 1219.53,2768.82 1219.58,2770.71ZM1137.11,2698.89C1137.35,2697.82 1137.48,2696.64 1137.48,2695.33C1137.48,2696.33 1137.34,2697.54 1137.11,2698.89Z"/>
                <path d="M1267.72,2709.12C1267.71,2709.09 1267.71,2709.07 1267.7,2709.04C1265.87,2706.56 1264.8,2703.49 1264.8,2700.18C1264.8,2691.74 1269.24,2688.46 1270.61,2687.37C1274.02,2684.66 1277.77,2683.72 1281.76,2684.18C1281.87,2684.19 1282,2684.21 1282.12,2684.23C1284.19,2683.44 1286.17,2682.8 1287.53,2682.28C1299.24,2677.78 1308.24,2678.11 1315.73,2680.61C1322.91,2683 1328.92,2687.68 1334.51,2693.87C1343.55,2703.85 1350.92,2720.76 1376.13,2720.76C1379.71,2720.76 1382.48,2720.26 1384.55,2718.91C1387.88,2716.74 1389.16,2712.9 1390.44,2708.95C1393.1,2700.78 1394.5,2691.59 1397.09,2683.63C1400.33,2673.67 1405.34,2665.35 1413.18,2659.92C1420.9,2654.58 1431.78,2651.47 1448.19,2654.45C1452.09,2655.16 1455.83,2657.2 1458.79,2661C1461.65,2664.69 1463.68,2672.81 1464.31,2675.76C1471.58,2709.7 1478.35,2747.57 1481.82,2781.14C1482.32,2785.98 1484.91,2790.62 1486.67,2795.5C1488.72,2801.18 1490.17,2807 1490.17,2813.05C1490.17,2815.62 1490.72,2818.73 1490.46,2821.51C1489.95,2826.89 1487.85,2831.66 1483.52,2835.45C1481.68,2837.06 1478.55,2838.97 1474.08,2839.39C1469.92,2839.77 1462.13,2837.96 1460.19,2836.99C1452.1,2832.94 1447.31,2827.24 1443.51,2820.67C1439.55,2813.83 1438.3,2804.55 1423.12,2800.93C1419.34,2800.03 1418.44,2803.89 1417.11,2806.97C1414.59,2812.83 1413.13,2819.62 1411.79,2825.14C1409.75,2833.58 1407.04,2840.05 1404.68,2842.81C1401.82,2846.14 1398.51,2847.82 1395.23,2848.52C1391.76,2849.27 1388.01,2849.06 1384.06,2847.44C1380.67,2846.05 1376.46,2842.96 1372.16,2838.36C1368.25,2834.17 1363.72,2828.33 1358.64,2823.56C1356.28,2821.34 1354.21,2818.72 1351.42,2818.72C1350.38,2818.72 1350.19,2819.86 1349.73,2820.71C1348.83,2822.4 1348.13,2824.32 1347.52,2826.34C1344.39,2836.64 1343.15,2848.76 1340.47,2856.12C1337.63,2863.93 1332.95,2868.66 1328.07,2870.84C1322.5,2873.33 1314.92,2874.12 1305.49,2867.26C1303.02,2865.47 1300.31,2862.52 1298.02,2858.15C1295.35,2853.05 1292.74,2844.81 1290.52,2834.84C1284.34,2807.06 1280.15,2763.68 1277.06,2751.33C1274.29,2740.22 1272.69,2728.84 1270.04,2717.56C1269.78,2716.47 1268.59,2712.19 1267.72,2709.12ZM1325.64,2729.56C1325.82,2732.47 1325.82,2735.42 1325.84,2738.19C1327.17,2737 1328.6,2735.92 1330.12,2734.97C1330.35,2734.83 1330.58,2734.69 1330.81,2734.56C1328.99,2732.94 1327.27,2731.26 1325.64,2729.56Z"/>
                <path d="M1322.65,2760.33C1321.57,2761.45 1320.3,2762.43 1318.85,2763.2C1311.53,2767.07 1302.44,2764.27 1298.57,2756.96C1294.74,2749.72 1295.44,2738.11 1298.63,2730.67C1302.27,2722.18 1307.72,2718.93 1312.4,2717.65C1317.76,2716.18 1323.97,2716.93 1330.14,2721.56C1334.34,2724.7 1339.21,2730.78 1343.77,2737.71C1348.09,2744.29 1352,2751.98 1355.27,2754.84C1361.5,2760.29 1362.13,2769.78 1356.68,2776.01C1351.23,2782.24 1341.75,2782.87 1335.52,2777.42C1331.95,2774.3 1327.31,2767.58 1322.65,2760.33Z"/>
                <path d="M1529.27,2629.25C1532.99,2621.88 1541.98,2618.89 1549.37,2622.58C1556.78,2626.28 1559.78,2635.3 1556.08,2642.71C1555.42,2644.03 1555.8,2643.34 1554.94,2644.78C1550.68,2651.88 1541.45,2654.18 1534.36,2649.93C1527.26,2645.67 1524.95,2636.44 1529.21,2629.35C1529.23,2629.31 1529.25,2629.28 1529.27,2629.25Z"/>
                <path d="M1525.21,2723.51C1518.8,2698.21 1510.17,2670.52 1510.17,2649.36C1510.17,2643.86 1512.14,2634.63 1515.56,2629.97C1518.19,2626.38 1522.34,2623.02 1527.27,2620.31C1531.85,2617.79 1537.21,2615.77 1540.95,2614.07C1564.84,2603.21 1582.15,2609.56 1596.96,2622.51C1607.92,2632.09 1617.13,2646.41 1627.4,2657.7C1640.54,2672.15 1652.76,2682.22 1663.77,2699.13C1664.38,2699.67 1670.16,2704.76 1674.29,2708.1C1681.38,2713.8 1688.64,2720.09 1692.29,2725.12C1697.43,2732.22 1697.82,2739.11 1696.13,2744.16C1694.33,2749.56 1688.72,2755.92 1677.22,2757.17C1669.81,2757.97 1657.4,2756.92 1645.06,2756.47C1636.5,2756.16 1627.9,2755.52 1622.93,2758.13C1611.98,2763.9 1592.62,2786.46 1577.67,2798.41C1571.17,2803.61 1565.09,2807.16 1560.33,2808.62C1556.05,2809.93 1552.18,2809.99 1548.86,2809.28C1543.4,2808.11 1539.38,2806.45 1536.27,2803.76C1533.34,2801.22 1530.81,2797.79 1529.41,2792.23C1527.34,2783.92 1525.79,2754.98 1525.21,2723.51ZM1574.32,2687.56C1573.95,2688.68 1573.15,2691.26 1572.84,2693.17C1571.49,2701.59 1571.81,2712.68 1573.61,2722.1C1574.28,2725.66 1575.97,2730.1 1576.98,2732.55C1582.53,2731.65 1588.46,2728.11 1593.31,2726.25C1601.18,2723.22 1606.12,2720.48 1607.61,2716.23C1609.17,2711.76 1606.2,2707.17 1602.99,2702.3C1599.44,2696.94 1594.72,2691.68 1589.66,2686.77C1583.83,2685.45 1578.07,2685.28 1574.32,2687.56Z"/>
                <path d="M1648.23,2584.54C1643.96,2578.68 1644.46,2570.4 1649.76,2565.11C1652.15,2562.72 1654.68,2561.55 1657.09,2561.01C1657.99,2559.96 1659.07,2558.94 1660.37,2557.99C1662.16,2556.68 1667.24,2554.24 1668.78,2553.52C1671.57,2550.82 1675.17,2548.97 1679.76,2548.35C1684.24,2547.75 1691.02,2548.81 1698.96,2551.72C1707.11,2554.7 1717.48,2559.63 1727.67,2562.79C1731.65,2564.02 1735.57,2564.99 1739.24,2565.18C1741.12,2565.28 1742.9,2565.31 1744.38,2564.52C1750.1,2561.44 1747.88,2556.02 1746.18,2550.74C1743.53,2542.52 1739.34,2534.01 1736.72,2526.37C1732.16,2513.09 1732.57,2501.38 1738.78,2493.09C1742.93,2487.54 1750.15,2482.46 1763.08,2480.61C1770.43,2479.56 1777.38,2482.15 1783.24,2488.18C1788.63,2493.72 1792.82,2504.27 1796.26,2508.65C1807.11,2522.46 1857.09,2603 1865.26,2621.72C1869.34,2631.06 1866.33,2637.64 1865.27,2639.34C1859.65,2648.33 1851.43,2652.38 1841,2652.78C1834.54,2653.02 1826.83,2651.52 1818.51,2649.2C1809.29,2646.63 1799.02,2642.96 1789.04,2641.86C1782.54,2641.14 1776.1,2641.44 1770.92,2646.15C1766.82,2649.88 1768.43,2654.76 1769.78,2659.47C1771.67,2666.12 1774.65,2672.78 1776.63,2678.85C1780.02,2689.24 1780.43,2698.68 1777.06,2706.03C1774.31,2712.03 1769.28,2717.51 1759.73,2720.92C1752.21,2723.6 1739.37,2723.42 1732.21,2718.86C1728.51,2716.5 1720.74,2707.63 1712.32,2695.24C1695.9,2671.1 1673.91,2633.07 1669.8,2623.21C1664.24,2609.87 1653.39,2598.46 1648.23,2584.54Z"/>
                <path d="M1827.89,2593.62C1830.87,2595.48 1833.21,2598.39 1834.3,2602.02C1836.33,2608.81 1833.69,2613.16 1831.75,2615.65C1829.75,2618.21 1822.19,2625.82 1811.5,2618.92C1808.97,2617.28 1793.97,2602.27 1790.9,2597.81C1786.42,2591.28 1780.4,2578.79 1774,2568.53C1771.41,2564.38 1769.28,2560.38 1766.66,2558.93C1759.43,2554.91 1756.82,2545.76 1760.84,2538.53C1764.86,2531.29 1774,2528.68 1781.23,2532.7C1785.95,2535.32 1791.11,2540.42 1795.84,2547.17C1803.31,2557.82 1810.48,2573.32 1815.62,2580.81C1817.18,2583.08 1825.57,2591.34 1827.89,2593.62ZM1806.13,2600.46C1805.03,2602.84 1804.23,2606.19 1805.56,2610.64C1804.51,2607.15 1804.8,2603.57 1806.13,2600.46Z"/>
                <path d="M1875.81,2376.48C1876.11,2375.68 1876.35,2375.07 1876.47,2374.77C1879.99,2365.97 1884.98,2360.3 1890.62,2356.51C1898.44,2351.28 1907.97,2349.66 1918.43,2350.2C1925.52,2350.56 1933.14,2351.92 1940.59,2352.43C1946.84,2352.86 1953.18,2353.28 1957.64,2347.99C1963.78,2340.7 1966.87,2335.7 1966.7,2331.18C1966.59,2328.23 1964.65,2326.1 1962.83,2323.88C1960.3,2320.81 1957.4,2317.89 1954.75,2314.85C1947.42,2306.47 1941.94,2297.2 1941.94,2285.43C1941.94,2283.36 1942.43,2280.28 1944,2276.81C1946.26,2271.82 1952.02,2263.82 1953.86,2261.52C1962.3,2250.97 1970.61,2246.48 1978.28,2245.08C1986.16,2243.63 1994.03,2245.29 2002.11,2249.76C2009.82,2254.02 2018.09,2261.39 2027.7,2269.15C2038.1,2277.54 2050.1,2286.92 2061.9,2293.25C2067.14,2296.07 2099.66,2317.92 2113.02,2328.49C2120.02,2334.04 2123.07,2339.47 2123.54,2341.05C2126.19,2349.87 2124.81,2355.92 2122.77,2359.87C2120.39,2364.48 2116.62,2367.74 2111.28,2369.43C2107.72,2370.57 2102.84,2370.91 2097.01,2370.02C2089.8,2368.91 2079.9,2365.66 2070.16,2363.79C2066.23,2363.04 2062.34,2362.48 2058.85,2362.85C2057.22,2363.02 2055.68,2363.44 2055,2365.22C2052.61,2371.51 2055.62,2378.71 2058.49,2385C2062.75,2394.35 2068.39,2402.08 2070.12,2405.12C2073.77,2411.53 2072.51,2416.56 2072.01,2418.22C2070.22,2424.18 2066.39,2427.51 2061.66,2429.26C2057.53,2430.78 2051.31,2430.17 2047.73,2429.05C2041.75,2427.18 2034.06,2423.65 2026.52,2422.31C2023.83,2421.83 2020.97,2420.97 2019.12,2423.28C2015.37,2427.97 2013.31,2431.74 2013.12,2435.21C2012.89,2439.23 2015.55,2442.1 2017.88,2444.82C2021.06,2448.53 2024.55,2451.84 2027.21,2454.98C2032.08,2460.74 2034.74,2466.61 2035.06,2472.16C2035.36,2477.31 2034.09,2482.64 2029.76,2488.05C2026.1,2492.63 2021.87,2494.85 2017.65,2495.78C2012.2,2496.99 2006.17,2495.95 2000.4,2492.35C1980.9,2480.16 1933.35,2451.78 1901.18,2428.32C1885.83,2417.13 1873.86,2406.69 1868.62,2399.34C1863.8,2392.61 1865.37,2383.23 1872.1,2378.42C1873.27,2377.58 1874.52,2376.94 1875.81,2376.48Z"/>
                <path d="M1983.48,2342.78C1983.65,2341.89 1983.92,2341.01 1984.26,2340.14C1987.34,2332.45 1996.08,2328.71 2003.76,2331.78C2008.19,2333.56 2011.52,2336.84 2012.87,2342.22C2013.25,2343.75 2013.49,2345.68 2013.21,2347.96C2012.97,2350 2010.88,2354.99 2010.04,2356.72C2007.14,2362.73 2001.72,2368.4 1994.87,2373C1987.06,2378.26 1977.39,2382.28 1970.31,2384.64C1958.34,2388.63 1941.71,2387.07 1926.34,2384.68C1920.3,2383.74 1914.5,2382.75 1909.53,2382.36C1907.66,2382.21 1904.93,2382.32 1904.22,2382.35C1903.69,2382.63 1903.15,2382.95 1902.63,2383.26C1905.22,2385.35 1908.54,2387.96 1910.91,2389.61C1915.2,2392.62 1919.03,2395.59 1921.55,2398.34C1927.14,2404.44 1926.73,2413.94 1920.62,2419.53C1914.52,2425.12 1905.03,2424.71 1899.43,2418.61C1895.97,2414.83 1888.53,2410.91 1882.94,2406.38C1874.14,2399.24 1869.1,2390.53 1869.26,2382.31C1869.41,2374.6 1873.59,2364.11 1891.37,2355.22C1897.84,2351.99 1909.64,2351.79 1923.3,2353.85C1935.75,2355.72 1950.64,2359.58 1960.83,2356.18C1965.05,2354.78 1970.58,2352.6 1975.54,2349.72C1978.62,2347.93 1981.8,2346.23 1983.03,2343.68C1983.11,2343.51 1983.29,2343.16 1983.48,2342.78Z"/>
                <path d="M2017.7,2182.35C2016.8,2180.48 2016.26,2178.75 2016.02,2177.27C2015.13,2171.93 2016.23,2166.34 2018.75,2160.81C2020.02,2158.01 2022.29,2155.35 2022.78,2152.57C2025.33,2138.13 2031.7,2129.07 2039.84,2123.28C2047.55,2117.79 2057.32,2115.23 2068.45,2115.06C2081.06,2114.86 2095.78,2117.8 2110.21,2120.48C2121.78,2122.64 2133.1,2124.8 2142.3,2123.35C2147.74,2122.49 2181.97,2121.03 2196.47,2124.55C2207.22,2127.16 2212.01,2134 2213.2,2138.78C2216.65,2152.56 2209.77,2163.81 2196.57,2172.98C2191.12,2176.77 2184.48,2180.32 2178.78,2184.39C2175.95,2186.41 2172.99,2188.16 2172.12,2191.05C2167.75,2205.62 2164.41,2219.03 2162.74,2234.14C2162.07,2240.16 2165.28,2247.21 2166.24,2253.52C2167.72,2263.2 2166.22,2271.8 2160.65,2278.49C2155.38,2284.82 2147.13,2288.49 2139.2,2288.49C2138.39,2288.49 2133.26,2288.03 2126.78,2283.24C2112.01,2272.36 2055.84,2226.52 2032.55,2206.24C2024.83,2199.52 2020.22,2194.5 2019.49,2193.28C2017.44,2189.86 2016.91,2185.96 2017.7,2182.35ZM2088.43,2180.57C2089.9,2183.47 2095.35,2193.91 2100.65,2199.81C2104.7,2204.32 2111.05,2209.18 2115.14,2212.11C2117.81,2205.64 2122.55,2198.65 2126.69,2191.6C2127.92,2189.49 2129.08,2187.38 2129.88,2185.24C2130.35,2183.98 2130.92,2182.77 2130.57,2181.52C2128.27,2173.48 2119.37,2171.45 2111.03,2171.59C2102.28,2171.74 2092.81,2174.4 2088.43,2180.57Z"/>
                <path d="M2058.06,2030.89C2057.46,2025.58 2058.1,2019.86 2059.75,2014.04C2062.19,2005.46 2067.11,1996.56 2068.83,1990.33C2071.76,1979.72 2073.03,1965.07 2077.24,1952.25C2080.99,1940.85 2086.89,1930.8 2096.04,1923.93C2116.77,1908.39 2157.71,1900.97 2191.69,1908.5C2216.43,1913.99 2237.13,1927.23 2246.12,1948.23C2252.3,1962.64 2254.22,2013.75 2246.94,2045.88C2244.81,2055.32 2241.84,2063.25 2238.38,2068.74C2234.49,2074.91 2229.67,2078.72 2224.72,2080.58C2221.82,2081.67 2214.54,2082.42 2204.55,2081.51C2177.56,2079.03 2121.54,2068.02 2110.84,2066.49C2099.16,2064.82 2086.79,2061.21 2075.3,2058.25C2071.86,2057.37 2067.53,2054.73 2064.14,2050.85C2060.67,2046.87 2058.24,2041.84 2057.9,2040.82C2056.36,2036.12 2057.41,2032.8 2057.93,2031.26C2057.97,2031.13 2058.01,2031.01 2058.06,2030.89ZM2061.5,2046.66C2061.13,2046.25 2060.78,2045.81 2060.45,2045.35C2060.8,2045.85 2061.15,2046.28 2061.5,2046.66ZM2167.19,2031.3C2169.43,2031.43 2171.72,2031.56 2174.03,2031.69C2178.54,2029.05 2182.62,2026.92 2186.33,2025C2192.15,2021.98 2196.86,2020.06 2200.31,2015.74C2203.65,2011.57 2205.63,2005.42 2207.43,1995.36C2207.09,1992.31 2206.54,1989.31 2205.81,1986.43C2202.78,1981.6 2198.41,1977.55 2193.38,1974.25C2183.2,1967.56 2170.26,1963.83 2157.72,1963.17C2136.94,1962.09 2115.52,1969.03 2117.72,1991.05C2120.46,2018.47 2143.36,2027.29 2167.19,2031.3Z"/>
                <path d="M2120.91,2050.37C2116.01,2053.05 2109.8,2052.89 2104.95,2049.43C2103.28,2048.24 2101.94,2046.77 2100.92,2045.14C2096.74,2044.5 2091.31,2043.59 2089.83,2042.92C2085.21,2040.85 2083,2037.61 2081.86,2035.11C2080.43,2031.99 2080.08,2028.74 2080.85,2025.35C2081.41,2022.88 2082.63,2019.87 2085.82,2017.07C2088.63,2014.62 2092.09,2013.4 2095.55,2013.36C2094.61,2001.1 2095.91,1989.06 2097.93,1976.96C2098.44,1973.88 2100.05,1970.03 2102.9,1966.27C2105.76,1962.5 2110.37,1958.33 2112.47,1956.01C2131.49,1934.99 2157.4,1923.48 2181.14,1927.77C2197.52,1930.74 2213.52,1940.91 2225.79,1961.94C2232.71,1973.81 2231.04,1988.19 2229.22,2000.93C2226.13,2022.55 2219.78,2033.29 2212.08,2039.47C2206.28,2044.12 2199.27,2046.61 2190.46,2047.82C2181.09,2049.1 2168.8,2048.81 2152.78,2052.14C2143.21,2054.14 2131.62,2052.9 2120.91,2050.37ZM2127.05,2021.19C2133.69,2022.96 2140.74,2024.01 2146.66,2022.78C2159.76,2020.05 2170.57,2019.47 2179.47,2018.78C2185.41,2018.32 2190.11,2018.8 2193.41,2015.98C2197,2012.91 2198.06,2006.95 2199.52,1996.69C2200.02,1993.19 2200.68,1989.5 2200.96,1985.8C2201.18,1982.79 2201.43,1979.71 2199.88,1977.06C2193.08,1965.4 2184.88,1958.94 2175.8,1957.29C2161.35,1954.68 2146.29,1963.34 2134.72,1976.13C2133.26,1977.74 2128.75,1982.45 2127.16,1984.11C2125.35,1995.41 2124.23,2006.66 2126.4,2018.27C2126.53,2018.97 2126.77,2019.98 2127.05,2021.19Z"/>
                <path d="M2079.17,1834.49C2079,1833.83 2077.44,1827.53 2077.2,1824.33C2076.88,1820.09 2077.54,1816.06 2079.3,1812.4C2079.34,1812.03 2079.56,1810.07 2079.55,1808.87C2079.55,1805.21 2079.18,1801.2 2079.01,1797.22C2078.67,1789.31 2079.26,1781.56 2081.86,1775.33C2084.31,1769.44 2090.1,1765.94 2096.12,1766.1C2096.49,1765.7 2096.84,1765.36 2097.18,1765.05C2100.75,1761.79 2104.3,1760.64 2107.33,1760.29C2113.41,1759.6 2120.88,1761.76 2125.58,1771.43C2128.24,1776.92 2130.38,1789.45 2135.46,1800.12C2137.79,1805.01 2140.8,1810.05 2147.45,1809.14C2150.55,1808.72 2152.03,1805.65 2153.74,1802.96C2157.74,1796.68 2160.63,1789.34 2163.53,1784.21C2170.51,1771.84 2180.16,1768.14 2188.89,1770.53C2198.89,1773.25 2204.95,1781.91 2207.35,1794.88C2208.07,1798.73 2208.56,1803.09 2209.56,1807.28C2210.19,1809.89 2210.54,1812.78 2213.06,1814.17C2215.62,1815.58 2219.29,1815.62 2224.44,1815.01C2225,1814.95 2224.89,1814.29 2225.06,1813.82C2225.37,1812.98 2225.61,1812.08 2225.81,1811.13C2226.82,1806.39 2226.98,1800.94 2227.22,1795.68C2227.55,1788.48 2228,1781.55 2229.38,1776.09C2230.97,1769.74 2233.85,1764.79 2237.61,1761.37C2245.36,1754.33 2252.45,1753.7 2257.67,1754.8C2264.53,1756.25 2272.12,1762.6 2275,1775.46C2280.02,1797.86 2273.58,1849.47 2271.22,1856.9C2269.76,1861.53 2264.11,1868.42 2252.32,1870.63C2235.1,1873.87 2194.71,1871.39 2187.19,1871.39C2172.21,1871.39 2156.5,1869.97 2140.85,1869.97C2131.62,1869.97 2122.38,1871.81 2114.61,1871.95C2104.37,1872.13 2095.89,1869.67 2089.67,1863.93C2083.95,1858.65 2079.23,1849.91 2079.17,1834.49ZM2243.2,1839.8C2242.98,1839.67 2242.76,1839.52 2242.55,1839.37C2242.53,1839.38 2242.51,1839.39 2242.5,1839.41C2242.73,1839.55 2242.97,1839.68 2243.2,1839.8Z"/>
            </g>
        </g>
    </g>
</svg>
